%TF.GenerationSoftware,KiCad,Pcbnew,(6.0.0-0)*%
%TF.CreationDate,2022-08-15T22:32:54-06:00*%
%TF.ProjectId,FlippyAdapter,466c6970-7079-4416-9461-707465722e6b,C*%
%TF.SameCoordinates,Original*%
%TF.FileFunction,Legend,Bot*%
%TF.FilePolarity,Positive*%
%FSLAX46Y46*%
G04 Gerber Fmt 4.6, Leading zero omitted, Abs format (unit mm)*
G04 Created by KiCad (PCBNEW (6.0.0-0)) date 2022-08-15 22:32:54*
%MOMM*%
%LPD*%
G01*
G04 APERTURE LIST*
G04 Aperture macros list*
%AMRoundRect*
0 Rectangle with rounded corners*
0 $1 Rounding radius*
0 $2 $3 $4 $5 $6 $7 $8 $9 X,Y pos of 4 corners*
0 Add a 4 corners polygon primitive as box body*
4,1,4,$2,$3,$4,$5,$6,$7,$8,$9,$2,$3,0*
0 Add four circle primitives for the rounded corners*
1,1,$1+$1,$2,$3*
1,1,$1+$1,$4,$5*
1,1,$1+$1,$6,$7*
1,1,$1+$1,$8,$9*
0 Add four rect primitives between the rounded corners*
20,1,$1+$1,$2,$3,$4,$5,0*
20,1,$1+$1,$4,$5,$6,$7,0*
20,1,$1+$1,$6,$7,$8,$9,0*
20,1,$1+$1,$8,$9,$2,$3,0*%
G04 Aperture macros list end*
%ADD10C,0.150000*%
%ADD11C,0.010000*%
%ADD12C,7.100000*%
%ADD13C,4.000000*%
%ADD14RoundRect,0.050000X0.850000X-0.850000X0.850000X0.850000X-0.850000X0.850000X-0.850000X-0.850000X0*%
%ADD15O,1.800000X1.800000*%
%ADD16RoundRect,0.300000X0.600000X-0.600000X0.600000X0.600000X-0.600000X0.600000X-0.600000X-0.600000X0*%
%ADD17C,1.800000*%
G04 APERTURE END LIST*
D10*
X101900000Y-86600000D02*
X101900000Y-80200000D01*
X197700000Y-86500000D02*
X197700000Y-80100000D01*
X111257142Y-87357142D02*
X110495238Y-87357142D01*
X110876190Y-87661904D02*
X110876190Y-87052380D01*
X109257142Y-87357142D02*
X108495238Y-87357142D01*
X108876190Y-87661904D02*
X108876190Y-87052380D01*
X107542857Y-87661904D02*
X108019047Y-87661904D01*
X108019047Y-86861904D01*
X107209523Y-87242857D02*
X106876190Y-87242857D01*
X106733333Y-87661904D02*
X107209523Y-87661904D01*
X107209523Y-86861904D01*
X106733333Y-86861904D01*
X106304761Y-87661904D02*
X106304761Y-86861904D01*
X106066666Y-86861904D01*
X105923809Y-86900000D01*
X105828571Y-86976190D01*
X105780952Y-87052380D01*
X105733333Y-87204761D01*
X105733333Y-87319047D01*
X105780952Y-87471428D01*
X105828571Y-87547619D01*
X105923809Y-87623809D01*
X106066666Y-87661904D01*
X106304761Y-87661904D01*
X105304761Y-87357142D02*
X104542857Y-87357142D01*
X103304761Y-87357142D02*
X102542857Y-87357142D01*
X92747619Y-84609523D02*
X93747619Y-84609523D01*
X92747619Y-84038095D01*
X93747619Y-84038095D01*
X93795238Y-82847619D02*
X92509523Y-83704761D01*
X92842857Y-81942857D02*
X92795238Y-81990476D01*
X92747619Y-82133333D01*
X92747619Y-82228571D01*
X92795238Y-82371428D01*
X92890476Y-82466666D01*
X92985714Y-82514285D01*
X93176190Y-82561904D01*
X93319047Y-82561904D01*
X93509523Y-82514285D01*
X93604761Y-82466666D01*
X93700000Y-82371428D01*
X93747619Y-82228571D01*
X93747619Y-82133333D01*
X93700000Y-81990476D01*
X93652380Y-81942857D01*
X113557142Y-73871428D02*
X112795238Y-73871428D01*
X113176190Y-74252380D02*
X113176190Y-73490476D01*
X111842857Y-74252380D02*
X112319047Y-74252380D01*
X112319047Y-73252380D01*
X111509523Y-73728571D02*
X111176190Y-73728571D01*
X111033333Y-74252380D02*
X111509523Y-74252380D01*
X111509523Y-73252380D01*
X111033333Y-73252380D01*
X110604761Y-74252380D02*
X110604761Y-73252380D01*
X110366666Y-73252380D01*
X110223809Y-73300000D01*
X110128571Y-73395238D01*
X110080952Y-73490476D01*
X110033333Y-73680952D01*
X110033333Y-73823809D01*
X110080952Y-74014285D01*
X110128571Y-74109523D01*
X110223809Y-74204761D01*
X110366666Y-74252380D01*
X110604761Y-74252380D01*
X109604761Y-73871428D02*
X108842857Y-73871428D01*
X205747619Y-84709523D02*
X206747619Y-84709523D01*
X205747619Y-84138095D01*
X206747619Y-84138095D01*
X206795238Y-82947619D02*
X205509523Y-83804761D01*
X205842857Y-82042857D02*
X205795238Y-82090476D01*
X205747619Y-82233333D01*
X205747619Y-82328571D01*
X205795238Y-82471428D01*
X205890476Y-82566666D01*
X205985714Y-82614285D01*
X206176190Y-82661904D01*
X206319047Y-82661904D01*
X206509523Y-82614285D01*
X206604761Y-82566666D01*
X206700000Y-82471428D01*
X206747619Y-82328571D01*
X206747619Y-82233333D01*
X206700000Y-82090476D01*
X206652380Y-82042857D01*
D11*
%TO.C,G\u002A\u002A\u002A*%
X81379374Y-75984401D02*
X81233236Y-76028243D01*
X81233236Y-76028243D02*
X80881930Y-76257906D01*
X80881930Y-76257906D02*
X80604454Y-76601694D01*
X80604454Y-76601694D02*
X80440047Y-77007969D01*
X80440047Y-77007969D02*
X80424051Y-77093087D01*
X80424051Y-77093087D02*
X80402038Y-77406100D01*
X80402038Y-77406100D02*
X80434341Y-77739244D01*
X80434341Y-77739244D02*
X80528577Y-78116593D01*
X80528577Y-78116593D02*
X80692361Y-78562221D01*
X80692361Y-78562221D02*
X80933309Y-79100200D01*
X80933309Y-79100200D02*
X81259035Y-79754606D01*
X81259035Y-79754606D02*
X81277077Y-79789638D01*
X81277077Y-79789638D02*
X81619990Y-80480777D01*
X81619990Y-80480777D02*
X81872067Y-81053071D01*
X81872067Y-81053071D02*
X82039654Y-81526340D01*
X82039654Y-81526340D02*
X82129102Y-81920406D01*
X82129102Y-81920406D02*
X82146759Y-82255092D01*
X82146759Y-82255092D02*
X82125185Y-82437514D01*
X82125185Y-82437514D02*
X82060485Y-82683593D01*
X82060485Y-82683593D02*
X81964984Y-82941894D01*
X81964984Y-82941894D02*
X81861016Y-83161840D01*
X81861016Y-83161840D02*
X81770913Y-83292856D01*
X81770913Y-83292856D02*
X81740214Y-83309333D01*
X81740214Y-83309333D02*
X81668162Y-83244856D01*
X81668162Y-83244856D02*
X81532008Y-83075807D01*
X81532008Y-83075807D02*
X81361203Y-82838755D01*
X81361203Y-82838755D02*
X81360884Y-82838293D01*
X81360884Y-82838293D02*
X80875867Y-82277178D01*
X80875867Y-82277178D02*
X80287027Y-81848012D01*
X80287027Y-81848012D02*
X79599745Y-81553332D01*
X79599745Y-81553332D02*
X78819406Y-81395674D01*
X78819406Y-81395674D02*
X78240404Y-81368011D01*
X78240404Y-81368011D02*
X77466156Y-81374023D01*
X77466156Y-81374023D02*
X78257162Y-81540083D01*
X78257162Y-81540083D02*
X79098924Y-81777136D01*
X79098924Y-81777136D02*
X79814247Y-82111534D01*
X79814247Y-82111534D02*
X80420877Y-82551830D01*
X80420877Y-82551830D02*
X80492858Y-82617458D01*
X80492858Y-82617458D02*
X80717089Y-82853874D01*
X80717089Y-82853874D02*
X80948007Y-83140419D01*
X80948007Y-83140419D02*
X81157281Y-83436272D01*
X81157281Y-83436272D02*
X81316580Y-83700608D01*
X81316580Y-83700608D02*
X81397573Y-83892604D01*
X81397573Y-83892604D02*
X81402361Y-83927992D01*
X81402361Y-83927992D02*
X81350594Y-83903365D01*
X81350594Y-83903365D02*
X81212266Y-83777631D01*
X81212266Y-83777631D02*
X81014032Y-83575602D01*
X81014032Y-83575602D02*
X80947637Y-83504659D01*
X80947637Y-83504659D02*
X80336276Y-82952142D01*
X80336276Y-82952142D02*
X79631648Y-82519234D01*
X79631648Y-82519234D02*
X78819953Y-82199406D01*
X78819953Y-82199406D02*
X77887393Y-81986131D01*
X77887393Y-81986131D02*
X77667842Y-81953300D01*
X77667842Y-81953300D02*
X77293133Y-81893881D01*
X77293133Y-81893881D02*
X76941445Y-81824262D01*
X76941445Y-81824262D02*
X76679312Y-81757872D01*
X76679312Y-81757872D02*
X76646309Y-81747142D01*
X76646309Y-81747142D02*
X76362786Y-81625737D01*
X76362786Y-81625737D02*
X76053878Y-81456584D01*
X76053878Y-81456584D02*
X75756989Y-81265235D01*
X75756989Y-81265235D02*
X75509525Y-81077242D01*
X75509525Y-81077242D02*
X75348891Y-80918159D01*
X75348891Y-80918159D02*
X75307896Y-80832833D01*
X75307896Y-80832833D02*
X75248797Y-80709653D01*
X75248797Y-80709653D02*
X75086360Y-80701155D01*
X75086360Y-80701155D02*
X74840163Y-80805552D01*
X74840163Y-80805552D02*
X74709242Y-80887540D01*
X74709242Y-80887540D02*
X74288669Y-81117730D01*
X74288669Y-81117730D02*
X73879950Y-81208813D01*
X73879950Y-81208813D02*
X73424490Y-81170817D01*
X73424490Y-81170817D02*
X73265537Y-81134623D01*
X73265537Y-81134623D02*
X72927615Y-81064417D01*
X72927615Y-81064417D02*
X72726313Y-81062190D01*
X72726313Y-81062190D02*
X72663737Y-81092885D01*
X72663737Y-81092885D02*
X72632296Y-81133233D01*
X72632296Y-81133233D02*
X72638390Y-81177172D01*
X72638390Y-81177172D02*
X72702421Y-81239271D01*
X72702421Y-81239271D02*
X72844789Y-81334098D01*
X72844789Y-81334098D02*
X73085896Y-81476221D01*
X73085896Y-81476221D02*
X73446143Y-81680210D01*
X73446143Y-81680210D02*
X73633416Y-81785333D01*
X73633416Y-81785333D02*
X74070016Y-82074774D01*
X74070016Y-82074774D02*
X74525839Y-82452625D01*
X74525839Y-82452625D02*
X74962310Y-82880026D01*
X74962310Y-82880026D02*
X75340855Y-83318120D01*
X75340855Y-83318120D02*
X75622898Y-83728051D01*
X75622898Y-83728051D02*
X75692627Y-83859667D01*
X75692627Y-83859667D02*
X75819759Y-84152381D01*
X75819759Y-84152381D02*
X75893966Y-84414294D01*
X75893966Y-84414294D02*
X75928830Y-84713403D01*
X75928830Y-84713403D02*
X75937860Y-85087333D01*
X75937860Y-85087333D02*
X75929015Y-85494076D01*
X75929015Y-85494076D02*
X75892345Y-85792601D01*
X75892345Y-85792601D02*
X75817447Y-86043127D01*
X75817447Y-86043127D02*
X75744587Y-86206204D01*
X75744587Y-86206204D02*
X75617291Y-86486880D01*
X75617291Y-86486880D02*
X75578250Y-86647482D01*
X75578250Y-86647482D02*
X75628462Y-86713059D01*
X75628462Y-86713059D02*
X75764633Y-86709367D01*
X75764633Y-86709367D02*
X76066261Y-86581614D01*
X76066261Y-86581614D02*
X76362475Y-86315329D01*
X76362475Y-86315329D02*
X76631611Y-85940530D01*
X76631611Y-85940530D02*
X76852002Y-85487236D01*
X76852002Y-85487236D02*
X76999167Y-84998831D01*
X76999167Y-84998831D02*
X77039451Y-84820323D01*
X77039451Y-84820323D02*
X77060721Y-84769030D01*
X77060721Y-84769030D02*
X77065852Y-84857378D01*
X77065852Y-84857378D02*
X77057715Y-85097796D01*
X77057715Y-85097796D02*
X77051945Y-85227157D01*
X77051945Y-85227157D02*
X77012229Y-85644444D01*
X77012229Y-85644444D02*
X76924811Y-85971673D01*
X76924811Y-85971673D02*
X76799488Y-86234865D01*
X76799488Y-86234865D02*
X76682026Y-86463518D01*
X76682026Y-86463518D02*
X76617451Y-86626669D01*
X76617451Y-86626669D02*
X76614310Y-86676710D01*
X76614310Y-86676710D02*
X76749470Y-86702878D01*
X76749470Y-86702878D02*
X76957536Y-86625036D01*
X76957536Y-86625036D02*
X77202839Y-86469118D01*
X77202839Y-86469118D02*
X77449711Y-86261057D01*
X77449711Y-86261057D02*
X77662484Y-86026789D01*
X77662484Y-86026789D02*
X77793187Y-85819561D01*
X77793187Y-85819561D02*
X77930633Y-85529916D01*
X77930633Y-85529916D02*
X78799061Y-85494116D01*
X78799061Y-85494116D02*
X79278138Y-85463831D01*
X79278138Y-85463831D02*
X79648235Y-85411334D01*
X79648235Y-85411334D02*
X79969328Y-85325701D01*
X79969328Y-85325701D02*
X80199964Y-85238997D01*
X80199964Y-85238997D02*
X80476507Y-85138455D01*
X80476507Y-85138455D02*
X80613801Y-85115110D01*
X80613801Y-85115110D02*
X80616407Y-85156763D01*
X80616407Y-85156763D02*
X80488886Y-85251213D01*
X80488886Y-85251213D02*
X80235802Y-85386258D01*
X80235802Y-85386258D02*
X80125726Y-85437553D01*
X80125726Y-85437553D02*
X79879383Y-85561443D01*
X79879383Y-85561443D02*
X79754470Y-85670906D01*
X79754470Y-85670906D02*
X79712246Y-85806459D01*
X79712246Y-85806459D02*
X79709822Y-85872529D01*
X79709822Y-85872529D02*
X79665321Y-86126158D01*
X79665321Y-86126158D02*
X79566106Y-86362832D01*
X79566106Y-86362832D02*
X79482611Y-86541580D01*
X79482611Y-86541580D02*
X79470672Y-86653030D01*
X79470672Y-86653030D02*
X79474564Y-86658297D01*
X79474564Y-86658297D02*
X79592576Y-86669701D01*
X79592576Y-86669701D02*
X79781765Y-86591578D01*
X79781765Y-86591578D02*
X79993697Y-86454262D01*
X79993697Y-86454262D02*
X80179934Y-86288088D01*
X80179934Y-86288088D02*
X80277534Y-86155416D01*
X80277534Y-86155416D02*
X80374094Y-86008817D01*
X80374094Y-86008817D02*
X80440468Y-85978521D01*
X80440468Y-85978521D02*
X80448280Y-85991760D01*
X80448280Y-85991760D02*
X80435144Y-86129237D01*
X80435144Y-86129237D02*
X80358003Y-86331239D01*
X80358003Y-86331239D02*
X80346505Y-86354080D01*
X80346505Y-86354080D02*
X80264713Y-86581285D01*
X80264713Y-86581285D02*
X80279480Y-86733546D01*
X80279480Y-86733546D02*
X80370986Y-86777352D01*
X80370986Y-86777352D02*
X80481359Y-86744209D01*
X80481359Y-86744209D02*
X80674375Y-86667462D01*
X80674375Y-86667462D02*
X80703041Y-86655119D01*
X80703041Y-86655119D02*
X80996740Y-86449724D01*
X80996740Y-86449724D02*
X81275794Y-86116385D01*
X81275794Y-86116385D02*
X81518246Y-85696333D01*
X81518246Y-85696333D02*
X81702137Y-85230799D01*
X81702137Y-85230799D02*
X81805509Y-84761015D01*
X81805509Y-84761015D02*
X81819927Y-84557946D01*
X81819927Y-84557946D02*
X81839588Y-84301042D01*
X81839588Y-84301042D02*
X81911864Y-84118022D01*
X81911864Y-84118022D02*
X82072263Y-83935444D01*
X82072263Y-83935444D02*
X82160328Y-83853955D01*
X82160328Y-83853955D02*
X82622359Y-83327010D01*
X82622359Y-83327010D02*
X82944997Y-82715431D01*
X82944997Y-82715431D02*
X83125828Y-82034144D01*
X83125828Y-82034144D02*
X83162435Y-81298070D01*
X83162435Y-81298070D02*
X83052403Y-80522132D01*
X83052403Y-80522132D02*
X82819076Y-79784617D01*
X82819076Y-79784617D02*
X82589535Y-79127380D01*
X82589535Y-79127380D02*
X82446010Y-78531941D01*
X82446010Y-78531941D02*
X82387142Y-78012222D01*
X82387142Y-78012222D02*
X82411573Y-77582146D01*
X82411573Y-77582146D02*
X82517942Y-77255632D01*
X82517942Y-77255632D02*
X82704892Y-77046604D01*
X82704892Y-77046604D02*
X82971062Y-76968982D01*
X82971062Y-76968982D02*
X83093149Y-76976903D01*
X83093149Y-76976903D02*
X83271797Y-76986918D01*
X83271797Y-76986918D02*
X83350323Y-76959240D01*
X83350323Y-76959240D02*
X83350489Y-76957190D01*
X83350489Y-76957190D02*
X83296537Y-76823987D01*
X83296537Y-76823987D02*
X83160962Y-76623126D01*
X83160962Y-76623126D02*
X82983182Y-76405366D01*
X82983182Y-76405366D02*
X82802619Y-76221463D01*
X82802619Y-76221463D02*
X82737794Y-76168270D01*
X82737794Y-76168270D02*
X82476207Y-76047798D01*
X82476207Y-76047798D02*
X82117518Y-75972800D01*
X82117518Y-75972800D02*
X81729361Y-75949569D01*
X81729361Y-75949569D02*
X81379374Y-75984401D01*
X81379374Y-75984401D02*
X81379374Y-75984401D01*
G36*
X82117518Y-75972800D02*
G01*
X82476207Y-76047798D01*
X82737794Y-76168270D01*
X82802619Y-76221463D01*
X82983182Y-76405366D01*
X83160962Y-76623126D01*
X83296537Y-76823987D01*
X83350489Y-76957190D01*
X83350323Y-76959240D01*
X83271797Y-76986918D01*
X83093149Y-76976903D01*
X82971062Y-76968982D01*
X82704892Y-77046604D01*
X82517942Y-77255632D01*
X82411573Y-77582146D01*
X82387142Y-78012222D01*
X82446010Y-78531941D01*
X82589535Y-79127380D01*
X82819076Y-79784617D01*
X83052403Y-80522132D01*
X83162435Y-81298070D01*
X83125828Y-82034144D01*
X82944997Y-82715431D01*
X82622359Y-83327010D01*
X82160328Y-83853955D01*
X82072263Y-83935444D01*
X81911864Y-84118022D01*
X81839588Y-84301042D01*
X81819927Y-84557946D01*
X81805509Y-84761015D01*
X81702137Y-85230799D01*
X81518246Y-85696333D01*
X81275794Y-86116385D01*
X80996740Y-86449724D01*
X80703041Y-86655119D01*
X80674375Y-86667462D01*
X80481359Y-86744209D01*
X80370986Y-86777352D01*
X80279480Y-86733546D01*
X80264713Y-86581285D01*
X80346505Y-86354080D01*
X80358003Y-86331239D01*
X80435144Y-86129237D01*
X80448280Y-85991760D01*
X80440468Y-85978521D01*
X80374094Y-86008817D01*
X80277534Y-86155416D01*
X80179934Y-86288088D01*
X79993697Y-86454262D01*
X79781765Y-86591578D01*
X79592576Y-86669701D01*
X79474564Y-86658297D01*
X79470672Y-86653030D01*
X79482611Y-86541580D01*
X79566106Y-86362832D01*
X79665321Y-86126158D01*
X79709822Y-85872529D01*
X79712246Y-85806459D01*
X79754470Y-85670906D01*
X79879383Y-85561443D01*
X80125726Y-85437553D01*
X80235802Y-85386258D01*
X80488886Y-85251213D01*
X80616407Y-85156763D01*
X80613801Y-85115110D01*
X80476507Y-85138455D01*
X80199964Y-85238997D01*
X79969328Y-85325701D01*
X79648235Y-85411334D01*
X79278138Y-85463831D01*
X78799061Y-85494116D01*
X77930633Y-85529916D01*
X77793187Y-85819561D01*
X77662484Y-86026789D01*
X77449711Y-86261057D01*
X77202839Y-86469118D01*
X76957536Y-86625036D01*
X76749470Y-86702878D01*
X76614310Y-86676710D01*
X76617451Y-86626669D01*
X76682026Y-86463518D01*
X76799488Y-86234865D01*
X76924811Y-85971673D01*
X77012229Y-85644444D01*
X77051945Y-85227157D01*
X77057715Y-85097796D01*
X77065852Y-84857378D01*
X77060721Y-84769030D01*
X77039451Y-84820323D01*
X76999167Y-84998831D01*
X76852002Y-85487236D01*
X76631611Y-85940530D01*
X76362475Y-86315329D01*
X76066261Y-86581614D01*
X75764633Y-86709367D01*
X75628462Y-86713059D01*
X75578250Y-86647482D01*
X75617291Y-86486880D01*
X75744587Y-86206204D01*
X75817447Y-86043127D01*
X75892345Y-85792601D01*
X75929015Y-85494076D01*
X75937860Y-85087333D01*
X75928830Y-84713403D01*
X75893966Y-84414294D01*
X75819759Y-84152381D01*
X75692627Y-83859667D01*
X75622898Y-83728051D01*
X75340855Y-83318120D01*
X74962310Y-82880026D01*
X74525839Y-82452625D01*
X74070016Y-82074774D01*
X73633416Y-81785333D01*
X73446143Y-81680210D01*
X73085896Y-81476221D01*
X72844789Y-81334098D01*
X72702421Y-81239271D01*
X72638390Y-81177172D01*
X72632296Y-81133233D01*
X72663737Y-81092885D01*
X72726313Y-81062190D01*
X72927615Y-81064417D01*
X73265537Y-81134623D01*
X73424490Y-81170817D01*
X73879950Y-81208813D01*
X74288669Y-81117730D01*
X74709242Y-80887540D01*
X74840163Y-80805552D01*
X75086360Y-80701155D01*
X75248797Y-80709653D01*
X75307896Y-80832833D01*
X75348891Y-80918159D01*
X75509525Y-81077242D01*
X75756989Y-81265235D01*
X76053878Y-81456584D01*
X76362786Y-81625737D01*
X76646309Y-81747142D01*
X76679312Y-81757872D01*
X76941445Y-81824262D01*
X77293133Y-81893881D01*
X77667842Y-81953300D01*
X77887393Y-81986131D01*
X78819953Y-82199406D01*
X79631648Y-82519234D01*
X80336276Y-82952142D01*
X80947637Y-83504659D01*
X81014032Y-83575602D01*
X81212266Y-83777631D01*
X81350594Y-83903365D01*
X81402361Y-83927992D01*
X81397573Y-83892604D01*
X81316580Y-83700608D01*
X81157281Y-83436272D01*
X80948007Y-83140419D01*
X80717089Y-82853874D01*
X80492858Y-82617458D01*
X80420877Y-82551830D01*
X79814247Y-82111534D01*
X79098924Y-81777136D01*
X78257162Y-81540083D01*
X77466156Y-81374023D01*
X78240404Y-81368011D01*
X78819406Y-81395674D01*
X79599745Y-81553332D01*
X80287027Y-81848012D01*
X80875867Y-82277178D01*
X81360884Y-82838293D01*
X81361203Y-82838755D01*
X81532008Y-83075807D01*
X81668162Y-83244856D01*
X81740214Y-83309333D01*
X81770913Y-83292856D01*
X81861016Y-83161840D01*
X81964984Y-82941894D01*
X82060485Y-82683593D01*
X82125185Y-82437514D01*
X82146759Y-82255092D01*
X82129102Y-81920406D01*
X82039654Y-81526340D01*
X81872067Y-81053071D01*
X81619990Y-80480777D01*
X81277077Y-79789638D01*
X81259035Y-79754606D01*
X80933309Y-79100200D01*
X80692361Y-78562221D01*
X80528577Y-78116593D01*
X80434341Y-77739244D01*
X80402038Y-77406100D01*
X80424051Y-77093087D01*
X80440047Y-77007969D01*
X80604454Y-76601694D01*
X80881930Y-76257906D01*
X81233236Y-76028243D01*
X81379374Y-75984401D01*
X81729361Y-75949569D01*
X82117518Y-75972800D01*
G37*
X82117518Y-75972800D02*
X82476207Y-76047798D01*
X82737794Y-76168270D01*
X82802619Y-76221463D01*
X82983182Y-76405366D01*
X83160962Y-76623126D01*
X83296537Y-76823987D01*
X83350489Y-76957190D01*
X83350323Y-76959240D01*
X83271797Y-76986918D01*
X83093149Y-76976903D01*
X82971062Y-76968982D01*
X82704892Y-77046604D01*
X82517942Y-77255632D01*
X82411573Y-77582146D01*
X82387142Y-78012222D01*
X82446010Y-78531941D01*
X82589535Y-79127380D01*
X82819076Y-79784617D01*
X83052403Y-80522132D01*
X83162435Y-81298070D01*
X83125828Y-82034144D01*
X82944997Y-82715431D01*
X82622359Y-83327010D01*
X82160328Y-83853955D01*
X82072263Y-83935444D01*
X81911864Y-84118022D01*
X81839588Y-84301042D01*
X81819927Y-84557946D01*
X81805509Y-84761015D01*
X81702137Y-85230799D01*
X81518246Y-85696333D01*
X81275794Y-86116385D01*
X80996740Y-86449724D01*
X80703041Y-86655119D01*
X80674375Y-86667462D01*
X80481359Y-86744209D01*
X80370986Y-86777352D01*
X80279480Y-86733546D01*
X80264713Y-86581285D01*
X80346505Y-86354080D01*
X80358003Y-86331239D01*
X80435144Y-86129237D01*
X80448280Y-85991760D01*
X80440468Y-85978521D01*
X80374094Y-86008817D01*
X80277534Y-86155416D01*
X80179934Y-86288088D01*
X79993697Y-86454262D01*
X79781765Y-86591578D01*
X79592576Y-86669701D01*
X79474564Y-86658297D01*
X79470672Y-86653030D01*
X79482611Y-86541580D01*
X79566106Y-86362832D01*
X79665321Y-86126158D01*
X79709822Y-85872529D01*
X79712246Y-85806459D01*
X79754470Y-85670906D01*
X79879383Y-85561443D01*
X80125726Y-85437553D01*
X80235802Y-85386258D01*
X80488886Y-85251213D01*
X80616407Y-85156763D01*
X80613801Y-85115110D01*
X80476507Y-85138455D01*
X80199964Y-85238997D01*
X79969328Y-85325701D01*
X79648235Y-85411334D01*
X79278138Y-85463831D01*
X78799061Y-85494116D01*
X77930633Y-85529916D01*
X77793187Y-85819561D01*
X77662484Y-86026789D01*
X77449711Y-86261057D01*
X77202839Y-86469118D01*
X76957536Y-86625036D01*
X76749470Y-86702878D01*
X76614310Y-86676710D01*
X76617451Y-86626669D01*
X76682026Y-86463518D01*
X76799488Y-86234865D01*
X76924811Y-85971673D01*
X77012229Y-85644444D01*
X77051945Y-85227157D01*
X77057715Y-85097796D01*
X77065852Y-84857378D01*
X77060721Y-84769030D01*
X77039451Y-84820323D01*
X76999167Y-84998831D01*
X76852002Y-85487236D01*
X76631611Y-85940530D01*
X76362475Y-86315329D01*
X76066261Y-86581614D01*
X75764633Y-86709367D01*
X75628462Y-86713059D01*
X75578250Y-86647482D01*
X75617291Y-86486880D01*
X75744587Y-86206204D01*
X75817447Y-86043127D01*
X75892345Y-85792601D01*
X75929015Y-85494076D01*
X75937860Y-85087333D01*
X75928830Y-84713403D01*
X75893966Y-84414294D01*
X75819759Y-84152381D01*
X75692627Y-83859667D01*
X75622898Y-83728051D01*
X75340855Y-83318120D01*
X74962310Y-82880026D01*
X74525839Y-82452625D01*
X74070016Y-82074774D01*
X73633416Y-81785333D01*
X73446143Y-81680210D01*
X73085896Y-81476221D01*
X72844789Y-81334098D01*
X72702421Y-81239271D01*
X72638390Y-81177172D01*
X72632296Y-81133233D01*
X72663737Y-81092885D01*
X72726313Y-81062190D01*
X72927615Y-81064417D01*
X73265537Y-81134623D01*
X73424490Y-81170817D01*
X73879950Y-81208813D01*
X74288669Y-81117730D01*
X74709242Y-80887540D01*
X74840163Y-80805552D01*
X75086360Y-80701155D01*
X75248797Y-80709653D01*
X75307896Y-80832833D01*
X75348891Y-80918159D01*
X75509525Y-81077242D01*
X75756989Y-81265235D01*
X76053878Y-81456584D01*
X76362786Y-81625737D01*
X76646309Y-81747142D01*
X76679312Y-81757872D01*
X76941445Y-81824262D01*
X77293133Y-81893881D01*
X77667842Y-81953300D01*
X77887393Y-81986131D01*
X78819953Y-82199406D01*
X79631648Y-82519234D01*
X80336276Y-82952142D01*
X80947637Y-83504659D01*
X81014032Y-83575602D01*
X81212266Y-83777631D01*
X81350594Y-83903365D01*
X81402361Y-83927992D01*
X81397573Y-83892604D01*
X81316580Y-83700608D01*
X81157281Y-83436272D01*
X80948007Y-83140419D01*
X80717089Y-82853874D01*
X80492858Y-82617458D01*
X80420877Y-82551830D01*
X79814247Y-82111534D01*
X79098924Y-81777136D01*
X78257162Y-81540083D01*
X77466156Y-81374023D01*
X78240404Y-81368011D01*
X78819406Y-81395674D01*
X79599745Y-81553332D01*
X80287027Y-81848012D01*
X80875867Y-82277178D01*
X81360884Y-82838293D01*
X81361203Y-82838755D01*
X81532008Y-83075807D01*
X81668162Y-83244856D01*
X81740214Y-83309333D01*
X81770913Y-83292856D01*
X81861016Y-83161840D01*
X81964984Y-82941894D01*
X82060485Y-82683593D01*
X82125185Y-82437514D01*
X82146759Y-82255092D01*
X82129102Y-81920406D01*
X82039654Y-81526340D01*
X81872067Y-81053071D01*
X81619990Y-80480777D01*
X81277077Y-79789638D01*
X81259035Y-79754606D01*
X80933309Y-79100200D01*
X80692361Y-78562221D01*
X80528577Y-78116593D01*
X80434341Y-77739244D01*
X80402038Y-77406100D01*
X80424051Y-77093087D01*
X80440047Y-77007969D01*
X80604454Y-76601694D01*
X80881930Y-76257906D01*
X81233236Y-76028243D01*
X81379374Y-75984401D01*
X81729361Y-75949569D01*
X82117518Y-75972800D01*
X74072272Y-80731530D02*
X73749093Y-80783201D01*
X73749093Y-80783201D02*
X73529156Y-80832325D01*
X73529156Y-80832325D02*
X73317489Y-80885850D01*
X73317489Y-80885850D02*
X73529156Y-80946152D01*
X73529156Y-80946152D02*
X73879397Y-81003415D01*
X73879397Y-81003415D02*
X74240291Y-80959037D01*
X74240291Y-80959037D02*
X74354656Y-80928610D01*
X74354656Y-80928610D02*
X74540475Y-80850357D01*
X74540475Y-80850357D02*
X74628684Y-80764812D01*
X74628684Y-80764812D02*
X74629822Y-80756005D01*
X74629822Y-80756005D02*
X74554064Y-80715059D01*
X74554064Y-80715059D02*
X74354405Y-80707858D01*
X74354405Y-80707858D02*
X74072272Y-80731530D01*
X74072272Y-80731530D02*
X74072272Y-80731530D01*
G36*
X74554064Y-80715059D02*
G01*
X74629822Y-80756005D01*
X74628684Y-80764812D01*
X74540475Y-80850357D01*
X74354656Y-80928610D01*
X74240291Y-80959037D01*
X73879397Y-81003415D01*
X73529156Y-80946152D01*
X73317489Y-80885850D01*
X73529156Y-80832325D01*
X73749093Y-80783201D01*
X74072272Y-80731530D01*
X74354405Y-80707858D01*
X74554064Y-80715059D01*
G37*
X74554064Y-80715059D02*
X74629822Y-80756005D01*
X74628684Y-80764812D01*
X74540475Y-80850357D01*
X74354656Y-80928610D01*
X74240291Y-80959037D01*
X73879397Y-81003415D01*
X73529156Y-80946152D01*
X73317489Y-80885850D01*
X73529156Y-80832325D01*
X73749093Y-80783201D01*
X74072272Y-80731530D01*
X74354405Y-80707858D01*
X74554064Y-80715059D01*
X80405729Y-74365860D02*
X79875314Y-74435891D01*
X79875314Y-74435891D02*
X79625156Y-74497897D01*
X79625156Y-74497897D02*
X79157195Y-74719158D01*
X79157195Y-74719158D02*
X78718126Y-75077285D01*
X78718126Y-75077285D02*
X78343399Y-75539941D01*
X78343399Y-75539941D02*
X78185822Y-75810929D01*
X78185822Y-75810929D02*
X78045878Y-76097294D01*
X78045878Y-76097294D02*
X77958621Y-76327033D01*
X77958621Y-76327033D02*
X77911706Y-76558217D01*
X77911706Y-76558217D02*
X77892786Y-76848916D01*
X77892786Y-76848916D02*
X77889489Y-77204742D01*
X77889489Y-77204742D02*
X77894686Y-77604220D01*
X77894686Y-77604220D02*
X77918271Y-77894656D01*
X77918271Y-77894656D02*
X77972232Y-78136222D01*
X77972232Y-78136222D02*
X78068560Y-78389088D01*
X78068560Y-78389088D02*
X78169158Y-78608293D01*
X78169158Y-78608293D02*
X78290572Y-78843855D01*
X78290572Y-78843855D02*
X78432561Y-79068580D01*
X78432561Y-79068580D02*
X78616086Y-79307849D01*
X78616086Y-79307849D02*
X78862109Y-79587044D01*
X78862109Y-79587044D02*
X79191591Y-79931548D01*
X79191591Y-79931548D02*
X79602527Y-80343959D01*
X79602527Y-80343959D02*
X79988940Y-80729794D01*
X79988940Y-80729794D02*
X80356772Y-81101317D01*
X80356772Y-81101317D02*
X80679956Y-81431881D01*
X80679956Y-81431881D02*
X80932425Y-81694838D01*
X80932425Y-81694838D02*
X81079692Y-81853983D01*
X81079692Y-81853983D02*
X81268271Y-82051556D01*
X81268271Y-82051556D02*
X81371890Y-82118882D01*
X81371890Y-82118882D02*
X81403089Y-82065649D01*
X81403089Y-82065649D02*
X81352135Y-81842200D01*
X81352135Y-81842200D02*
X81205201Y-81501772D01*
X81205201Y-81501772D02*
X80970966Y-81060503D01*
X80970966Y-81060503D02*
X80658113Y-80534529D01*
X80658113Y-80534529D02*
X80275320Y-79939987D01*
X80275320Y-79939987D02*
X80195221Y-79820339D01*
X80195221Y-79820339D02*
X79798663Y-79210647D01*
X79798663Y-79210647D02*
X79502315Y-78701756D01*
X79502315Y-78701756D02*
X79294735Y-78267160D01*
X79294735Y-78267160D02*
X79164482Y-77880351D01*
X79164482Y-77880351D02*
X79100112Y-77514822D01*
X79100112Y-77514822D02*
X79088127Y-77255667D01*
X79088127Y-77255667D02*
X79132334Y-76787657D01*
X79132334Y-76787657D02*
X79279364Y-76384292D01*
X79279364Y-76384292D02*
X79551995Y-75992332D01*
X79551995Y-75992332D02*
X79697985Y-75830326D01*
X79697985Y-75830326D02*
X80176310Y-75436946D01*
X80176310Y-75436946D02*
X80704950Y-75196768D01*
X80704950Y-75196768D02*
X81263148Y-75109298D01*
X81263148Y-75109298D02*
X81830145Y-75174042D01*
X81830145Y-75174042D02*
X82385184Y-75390506D01*
X82385184Y-75390506D02*
X82907505Y-75758197D01*
X82907505Y-75758197D02*
X83067036Y-75910467D01*
X83067036Y-75910467D02*
X83303613Y-76182909D01*
X83303613Y-76182909D02*
X83498188Y-76461223D01*
X83498188Y-76461223D02*
X83606686Y-76679726D01*
X83606686Y-76679726D02*
X83706558Y-76949943D01*
X83706558Y-76949943D02*
X83782476Y-77077436D01*
X83782476Y-77077436D02*
X83824866Y-77057078D01*
X83824866Y-77057078D02*
X83824152Y-76883739D01*
X83824152Y-76883739D02*
X83812526Y-76790000D01*
X83812526Y-76790000D02*
X83640313Y-76159962D01*
X83640313Y-76159962D02*
X83321906Y-75600505D01*
X83321906Y-75600505D02*
X82870298Y-75124465D01*
X82870298Y-75124465D02*
X82298478Y-74744684D01*
X82298478Y-74744684D02*
X81619440Y-74473998D01*
X81619440Y-74473998D02*
X81414493Y-74420123D01*
X81414493Y-74420123D02*
X80946091Y-74359418D01*
X80946091Y-74359418D02*
X80405729Y-74365860D01*
X80405729Y-74365860D02*
X80405729Y-74365860D01*
G36*
X81414493Y-74420123D02*
G01*
X81619440Y-74473998D01*
X82298478Y-74744684D01*
X82870298Y-75124465D01*
X83321906Y-75600505D01*
X83640313Y-76159962D01*
X83812526Y-76790000D01*
X83824152Y-76883739D01*
X83824866Y-77057078D01*
X83782476Y-77077436D01*
X83706558Y-76949943D01*
X83606686Y-76679726D01*
X83498188Y-76461223D01*
X83303613Y-76182909D01*
X83067036Y-75910467D01*
X82907505Y-75758197D01*
X82385184Y-75390506D01*
X81830145Y-75174042D01*
X81263148Y-75109298D01*
X80704950Y-75196768D01*
X80176310Y-75436946D01*
X79697985Y-75830326D01*
X79551995Y-75992332D01*
X79279364Y-76384292D01*
X79132334Y-76787657D01*
X79088127Y-77255667D01*
X79100112Y-77514822D01*
X79164482Y-77880351D01*
X79294735Y-78267160D01*
X79502315Y-78701756D01*
X79798663Y-79210647D01*
X80195221Y-79820339D01*
X80275320Y-79939987D01*
X80658113Y-80534529D01*
X80970966Y-81060503D01*
X81205201Y-81501772D01*
X81352135Y-81842200D01*
X81403089Y-82065649D01*
X81371890Y-82118882D01*
X81268271Y-82051556D01*
X81079692Y-81853983D01*
X80932425Y-81694838D01*
X80679956Y-81431881D01*
X80356772Y-81101317D01*
X79988940Y-80729794D01*
X79602527Y-80343959D01*
X79191591Y-79931548D01*
X78862109Y-79587044D01*
X78616086Y-79307849D01*
X78432561Y-79068580D01*
X78290572Y-78843855D01*
X78169158Y-78608293D01*
X78068560Y-78389088D01*
X77972232Y-78136222D01*
X77918271Y-77894656D01*
X77894686Y-77604220D01*
X77889489Y-77204742D01*
X77892786Y-76848916D01*
X77911706Y-76558217D01*
X77958621Y-76327033D01*
X78045878Y-76097294D01*
X78185822Y-75810929D01*
X78343399Y-75539941D01*
X78718126Y-75077285D01*
X79157195Y-74719158D01*
X79625156Y-74497897D01*
X79875314Y-74435891D01*
X80405729Y-74365860D01*
X80946091Y-74359418D01*
X81414493Y-74420123D01*
G37*
X81414493Y-74420123D02*
X81619440Y-74473998D01*
X82298478Y-74744684D01*
X82870298Y-75124465D01*
X83321906Y-75600505D01*
X83640313Y-76159962D01*
X83812526Y-76790000D01*
X83824152Y-76883739D01*
X83824866Y-77057078D01*
X83782476Y-77077436D01*
X83706558Y-76949943D01*
X83606686Y-76679726D01*
X83498188Y-76461223D01*
X83303613Y-76182909D01*
X83067036Y-75910467D01*
X82907505Y-75758197D01*
X82385184Y-75390506D01*
X81830145Y-75174042D01*
X81263148Y-75109298D01*
X80704950Y-75196768D01*
X80176310Y-75436946D01*
X79697985Y-75830326D01*
X79551995Y-75992332D01*
X79279364Y-76384292D01*
X79132334Y-76787657D01*
X79088127Y-77255667D01*
X79100112Y-77514822D01*
X79164482Y-77880351D01*
X79294735Y-78267160D01*
X79502315Y-78701756D01*
X79798663Y-79210647D01*
X80195221Y-79820339D01*
X80275320Y-79939987D01*
X80658113Y-80534529D01*
X80970966Y-81060503D01*
X81205201Y-81501772D01*
X81352135Y-81842200D01*
X81403089Y-82065649D01*
X81371890Y-82118882D01*
X81268271Y-82051556D01*
X81079692Y-81853983D01*
X80932425Y-81694838D01*
X80679956Y-81431881D01*
X80356772Y-81101317D01*
X79988940Y-80729794D01*
X79602527Y-80343959D01*
X79191591Y-79931548D01*
X78862109Y-79587044D01*
X78616086Y-79307849D01*
X78432561Y-79068580D01*
X78290572Y-78843855D01*
X78169158Y-78608293D01*
X78068560Y-78389088D01*
X77972232Y-78136222D01*
X77918271Y-77894656D01*
X77894686Y-77604220D01*
X77889489Y-77204742D01*
X77892786Y-76848916D01*
X77911706Y-76558217D01*
X77958621Y-76327033D01*
X78045878Y-76097294D01*
X78185822Y-75810929D01*
X78343399Y-75539941D01*
X78718126Y-75077285D01*
X79157195Y-74719158D01*
X79625156Y-74497897D01*
X79875314Y-74435891D01*
X80405729Y-74365860D01*
X80946091Y-74359418D01*
X81414493Y-74420123D01*
%TO.C,REF\u002A\u002A*%
X220144186Y-81368931D02*
X220060365Y-81813555D01*
X220060365Y-81813555D02*
X219751080Y-81941053D01*
X219751080Y-81941053D02*
X219441794Y-82068551D01*
X219441794Y-82068551D02*
X219070754Y-81816246D01*
X219070754Y-81816246D02*
X218966843Y-81745996D01*
X218966843Y-81745996D02*
X218872913Y-81683272D01*
X218872913Y-81683272D02*
X218793348Y-81630938D01*
X218793348Y-81630938D02*
X218732530Y-81591857D01*
X218732530Y-81591857D02*
X218694843Y-81568893D01*
X218694843Y-81568893D02*
X218684579Y-81563942D01*
X218684579Y-81563942D02*
X218666090Y-81576676D01*
X218666090Y-81576676D02*
X218626580Y-81611882D01*
X218626580Y-81611882D02*
X218570478Y-81665062D01*
X218570478Y-81665062D02*
X218502213Y-81731718D01*
X218502213Y-81731718D02*
X218426214Y-81807354D01*
X218426214Y-81807354D02*
X218346908Y-81887472D01*
X218346908Y-81887472D02*
X218268725Y-81967574D01*
X218268725Y-81967574D02*
X218196093Y-82043164D01*
X218196093Y-82043164D02*
X218133441Y-82109745D01*
X218133441Y-82109745D02*
X218085197Y-82162818D01*
X218085197Y-82162818D02*
X218055790Y-82197887D01*
X218055790Y-82197887D02*
X218048759Y-82209623D01*
X218048759Y-82209623D02*
X218058877Y-82231260D01*
X218058877Y-82231260D02*
X218087241Y-82278662D01*
X218087241Y-82278662D02*
X218130871Y-82347193D01*
X218130871Y-82347193D02*
X218186782Y-82432215D01*
X218186782Y-82432215D02*
X218251994Y-82529093D01*
X218251994Y-82529093D02*
X218289781Y-82584350D01*
X218289781Y-82584350D02*
X218358657Y-82685248D01*
X218358657Y-82685248D02*
X218419860Y-82776299D01*
X218419860Y-82776299D02*
X218470422Y-82852970D01*
X218470422Y-82852970D02*
X218507372Y-82910728D01*
X218507372Y-82910728D02*
X218527742Y-82945043D01*
X218527742Y-82945043D02*
X218530803Y-82952254D01*
X218530803Y-82952254D02*
X218523864Y-82972748D01*
X218523864Y-82972748D02*
X218504949Y-83020513D01*
X218504949Y-83020513D02*
X218476913Y-83088832D01*
X218476913Y-83088832D02*
X218442609Y-83170989D01*
X218442609Y-83170989D02*
X218404891Y-83260270D01*
X218404891Y-83260270D02*
X218366613Y-83349958D01*
X218366613Y-83349958D02*
X218330630Y-83433338D01*
X218330630Y-83433338D02*
X218299794Y-83503694D01*
X218299794Y-83503694D02*
X218276961Y-83554310D01*
X218276961Y-83554310D02*
X218264983Y-83578471D01*
X218264983Y-83578471D02*
X218264276Y-83579422D01*
X218264276Y-83579422D02*
X218245469Y-83584036D01*
X218245469Y-83584036D02*
X218195382Y-83594328D01*
X218195382Y-83594328D02*
X218119207Y-83609287D01*
X218119207Y-83609287D02*
X218022135Y-83627901D01*
X218022135Y-83627901D02*
X217909357Y-83649159D01*
X217909357Y-83649159D02*
X217843558Y-83661418D01*
X217843558Y-83661418D02*
X217723050Y-83684362D01*
X217723050Y-83684362D02*
X217614203Y-83706195D01*
X217614203Y-83706195D02*
X217522524Y-83725722D01*
X217522524Y-83725722D02*
X217453519Y-83741748D01*
X217453519Y-83741748D02*
X217412696Y-83753079D01*
X217412696Y-83753079D02*
X217404489Y-83756674D01*
X217404489Y-83756674D02*
X217396452Y-83781006D01*
X217396452Y-83781006D02*
X217389967Y-83835959D01*
X217389967Y-83835959D02*
X217385030Y-83915108D01*
X217385030Y-83915108D02*
X217381636Y-84012026D01*
X217381636Y-84012026D02*
X217379782Y-84120287D01*
X217379782Y-84120287D02*
X217379462Y-84233465D01*
X217379462Y-84233465D02*
X217380673Y-84345135D01*
X217380673Y-84345135D02*
X217383410Y-84448868D01*
X217383410Y-84448868D02*
X217387669Y-84538241D01*
X217387669Y-84538241D02*
X217393445Y-84606826D01*
X217393445Y-84606826D02*
X217400733Y-84648197D01*
X217400733Y-84648197D02*
X217405105Y-84656810D01*
X217405105Y-84656810D02*
X217431236Y-84667133D01*
X217431236Y-84667133D02*
X217486607Y-84681892D01*
X217486607Y-84681892D02*
X217563893Y-84699352D01*
X217563893Y-84699352D02*
X217655770Y-84717780D01*
X217655770Y-84717780D02*
X217687842Y-84723741D01*
X217687842Y-84723741D02*
X217842476Y-84752066D01*
X217842476Y-84752066D02*
X217964625Y-84774876D01*
X217964625Y-84774876D02*
X218058327Y-84793080D01*
X218058327Y-84793080D02*
X218127616Y-84807583D01*
X218127616Y-84807583D02*
X218176529Y-84819292D01*
X218176529Y-84819292D02*
X218209103Y-84829115D01*
X218209103Y-84829115D02*
X218229372Y-84837956D01*
X218229372Y-84837956D02*
X218241374Y-84846724D01*
X218241374Y-84846724D02*
X218243053Y-84848457D01*
X218243053Y-84848457D02*
X218259816Y-84876371D01*
X218259816Y-84876371D02*
X218285386Y-84930695D01*
X218285386Y-84930695D02*
X218317212Y-85004777D01*
X218317212Y-85004777D02*
X218352740Y-85091965D01*
X218352740Y-85091965D02*
X218389417Y-85185608D01*
X218389417Y-85185608D02*
X218424689Y-85279052D01*
X218424689Y-85279052D02*
X218456004Y-85365647D01*
X218456004Y-85365647D02*
X218480807Y-85438740D01*
X218480807Y-85438740D02*
X218496546Y-85491678D01*
X218496546Y-85491678D02*
X218500668Y-85517811D01*
X218500668Y-85517811D02*
X218500324Y-85518726D01*
X218500324Y-85518726D02*
X218486359Y-85540086D01*
X218486359Y-85540086D02*
X218454678Y-85587084D01*
X218454678Y-85587084D02*
X218408609Y-85654827D01*
X218408609Y-85654827D02*
X218351482Y-85738423D01*
X218351482Y-85738423D02*
X218286627Y-85832982D01*
X218286627Y-85832982D02*
X218268157Y-85859854D01*
X218268157Y-85859854D02*
X218202301Y-85957275D01*
X218202301Y-85957275D02*
X218144350Y-86046163D01*
X218144350Y-86046163D02*
X218097462Y-86121412D01*
X218097462Y-86121412D02*
X218064793Y-86177920D01*
X218064793Y-86177920D02*
X218049500Y-86210581D01*
X218049500Y-86210581D02*
X218048759Y-86214593D01*
X218048759Y-86214593D02*
X218061608Y-86235684D01*
X218061608Y-86235684D02*
X218097112Y-86277464D01*
X218097112Y-86277464D02*
X218150707Y-86335445D01*
X218150707Y-86335445D02*
X218217829Y-86405135D01*
X218217829Y-86405135D02*
X218293913Y-86482045D01*
X218293913Y-86482045D02*
X218374396Y-86561683D01*
X218374396Y-86561683D02*
X218454713Y-86639561D01*
X218454713Y-86639561D02*
X218530301Y-86711186D01*
X218530301Y-86711186D02*
X218596595Y-86772070D01*
X218596595Y-86772070D02*
X218649031Y-86817721D01*
X218649031Y-86817721D02*
X218683045Y-86843650D01*
X218683045Y-86843650D02*
X218692455Y-86847883D01*
X218692455Y-86847883D02*
X218714357Y-86837912D01*
X218714357Y-86837912D02*
X218759200Y-86811020D01*
X218759200Y-86811020D02*
X218819679Y-86771736D01*
X218819679Y-86771736D02*
X218866211Y-86740117D01*
X218866211Y-86740117D02*
X218950525Y-86682098D01*
X218950525Y-86682098D02*
X219050374Y-86613784D01*
X219050374Y-86613784D02*
X219150527Y-86545579D01*
X219150527Y-86545579D02*
X219204373Y-86509075D01*
X219204373Y-86509075D02*
X219386629Y-86385800D01*
X219386629Y-86385800D02*
X219539619Y-86468520D01*
X219539619Y-86468520D02*
X219609318Y-86504759D01*
X219609318Y-86504759D02*
X219668586Y-86532926D01*
X219668586Y-86532926D02*
X219708689Y-86548991D01*
X219708689Y-86548991D02*
X219718897Y-86551226D01*
X219718897Y-86551226D02*
X219731171Y-86534722D01*
X219731171Y-86534722D02*
X219755387Y-86488082D01*
X219755387Y-86488082D02*
X219789737Y-86415609D01*
X219789737Y-86415609D02*
X219832412Y-86321606D01*
X219832412Y-86321606D02*
X219881606Y-86210374D01*
X219881606Y-86210374D02*
X219935510Y-86086215D01*
X219935510Y-86086215D02*
X219992316Y-85953432D01*
X219992316Y-85953432D02*
X220050218Y-85816327D01*
X220050218Y-85816327D02*
X220107407Y-85679202D01*
X220107407Y-85679202D02*
X220162076Y-85546358D01*
X220162076Y-85546358D02*
X220212416Y-85422098D01*
X220212416Y-85422098D02*
X220256620Y-85310725D01*
X220256620Y-85310725D02*
X220292881Y-85216539D01*
X220292881Y-85216539D02*
X220319391Y-85143844D01*
X220319391Y-85143844D02*
X220334342Y-85096941D01*
X220334342Y-85096941D02*
X220336746Y-85080833D01*
X220336746Y-85080833D02*
X220317689Y-85060286D01*
X220317689Y-85060286D02*
X220275964Y-85026933D01*
X220275964Y-85026933D02*
X220220294Y-84987702D01*
X220220294Y-84987702D02*
X220215622Y-84984599D01*
X220215622Y-84984599D02*
X220071736Y-84869423D01*
X220071736Y-84869423D02*
X219955717Y-84735053D01*
X219955717Y-84735053D02*
X219868570Y-84585784D01*
X219868570Y-84585784D02*
X219811301Y-84425913D01*
X219811301Y-84425913D02*
X219784914Y-84259737D01*
X219784914Y-84259737D02*
X219790415Y-84091552D01*
X219790415Y-84091552D02*
X219828810Y-83925655D01*
X219828810Y-83925655D02*
X219901105Y-83766342D01*
X219901105Y-83766342D02*
X219922374Y-83731487D01*
X219922374Y-83731487D02*
X220033004Y-83590737D01*
X220033004Y-83590737D02*
X220163698Y-83477714D01*
X220163698Y-83477714D02*
X220309936Y-83393003D01*
X220309936Y-83393003D02*
X220467192Y-83337194D01*
X220467192Y-83337194D02*
X220630943Y-83310874D01*
X220630943Y-83310874D02*
X220796667Y-83314630D01*
X220796667Y-83314630D02*
X220959838Y-83349050D01*
X220959838Y-83349050D02*
X221115935Y-83414723D01*
X221115935Y-83414723D02*
X221260433Y-83512235D01*
X221260433Y-83512235D02*
X221305131Y-83551813D01*
X221305131Y-83551813D02*
X221418888Y-83675703D01*
X221418888Y-83675703D02*
X221501782Y-83806124D01*
X221501782Y-83806124D02*
X221558644Y-83952315D01*
X221558644Y-83952315D02*
X221590313Y-84097088D01*
X221590313Y-84097088D02*
X221598131Y-84259860D01*
X221598131Y-84259860D02*
X221572062Y-84423440D01*
X221572062Y-84423440D02*
X221514755Y-84582298D01*
X221514755Y-84582298D02*
X221428856Y-84730906D01*
X221428856Y-84730906D02*
X221317014Y-84863735D01*
X221317014Y-84863735D02*
X221181877Y-84975256D01*
X221181877Y-84975256D02*
X221164117Y-84987011D01*
X221164117Y-84987011D02*
X221107850Y-85025508D01*
X221107850Y-85025508D02*
X221065077Y-85058863D01*
X221065077Y-85058863D02*
X221044628Y-85080160D01*
X221044628Y-85080160D02*
X221044331Y-85080833D01*
X221044331Y-85080833D02*
X221048721Y-85103871D01*
X221048721Y-85103871D02*
X221066124Y-85156157D01*
X221066124Y-85156157D02*
X221094732Y-85233390D01*
X221094732Y-85233390D02*
X221132735Y-85331268D01*
X221132735Y-85331268D02*
X221178326Y-85445491D01*
X221178326Y-85445491D02*
X221229697Y-85571758D01*
X221229697Y-85571758D02*
X221285038Y-85705767D01*
X221285038Y-85705767D02*
X221342542Y-85843218D01*
X221342542Y-85843218D02*
X221400399Y-85979808D01*
X221400399Y-85979808D02*
X221456802Y-86111237D01*
X221456802Y-86111237D02*
X221509942Y-86233205D01*
X221509942Y-86233205D02*
X221558010Y-86341409D01*
X221558010Y-86341409D02*
X221599199Y-86431549D01*
X221599199Y-86431549D02*
X221631699Y-86499323D01*
X221631699Y-86499323D02*
X221653703Y-86540430D01*
X221653703Y-86540430D02*
X221662564Y-86551226D01*
X221662564Y-86551226D02*
X221689640Y-86542819D01*
X221689640Y-86542819D02*
X221740303Y-86520272D01*
X221740303Y-86520272D02*
X221805817Y-86487613D01*
X221805817Y-86487613D02*
X221841841Y-86468520D01*
X221841841Y-86468520D02*
X221994832Y-86385800D01*
X221994832Y-86385800D02*
X222177088Y-86509075D01*
X222177088Y-86509075D02*
X222270125Y-86572228D01*
X222270125Y-86572228D02*
X222371985Y-86641727D01*
X222371985Y-86641727D02*
X222467438Y-86707165D01*
X222467438Y-86707165D02*
X222515250Y-86740117D01*
X222515250Y-86740117D02*
X222582495Y-86785273D01*
X222582495Y-86785273D02*
X222639436Y-86821057D01*
X222639436Y-86821057D02*
X222678646Y-86842938D01*
X222678646Y-86842938D02*
X222691381Y-86847563D01*
X222691381Y-86847563D02*
X222709917Y-86835085D01*
X222709917Y-86835085D02*
X222750941Y-86800252D01*
X222750941Y-86800252D02*
X222810475Y-86746678D01*
X222810475Y-86746678D02*
X222884542Y-86677983D01*
X222884542Y-86677983D02*
X222969165Y-86597781D01*
X222969165Y-86597781D02*
X223022685Y-86546286D01*
X223022685Y-86546286D02*
X223116319Y-86454286D01*
X223116319Y-86454286D02*
X223197241Y-86371999D01*
X223197241Y-86371999D02*
X223262177Y-86302945D01*
X223262177Y-86302945D02*
X223307858Y-86250644D01*
X223307858Y-86250644D02*
X223331011Y-86218616D01*
X223331011Y-86218616D02*
X223333232Y-86212116D01*
X223333232Y-86212116D02*
X223322924Y-86187394D01*
X223322924Y-86187394D02*
X223294439Y-86137405D01*
X223294439Y-86137405D02*
X223250937Y-86067212D01*
X223250937Y-86067212D02*
X223195577Y-85981875D01*
X223195577Y-85981875D02*
X223131520Y-85886456D01*
X223131520Y-85886456D02*
X223113303Y-85859854D01*
X223113303Y-85859854D02*
X223046927Y-85763167D01*
X223046927Y-85763167D02*
X222987378Y-85676117D01*
X222987378Y-85676117D02*
X222937984Y-85603595D01*
X222937984Y-85603595D02*
X222902075Y-85550493D01*
X222902075Y-85550493D02*
X222882981Y-85521703D01*
X222882981Y-85521703D02*
X222881136Y-85518726D01*
X222881136Y-85518726D02*
X222883895Y-85495782D01*
X222883895Y-85495782D02*
X222898538Y-85445336D01*
X222898538Y-85445336D02*
X222922513Y-85374041D01*
X222922513Y-85374041D02*
X222953266Y-85288547D01*
X222953266Y-85288547D02*
X222988244Y-85195507D01*
X222988244Y-85195507D02*
X223024893Y-85101574D01*
X223024893Y-85101574D02*
X223060661Y-85013399D01*
X223060661Y-85013399D02*
X223092994Y-84937634D01*
X223092994Y-84937634D02*
X223119338Y-84880931D01*
X223119338Y-84880931D02*
X223137142Y-84849943D01*
X223137142Y-84849943D02*
X223138407Y-84848457D01*
X223138407Y-84848457D02*
X223149294Y-84839601D01*
X223149294Y-84839601D02*
X223167682Y-84830843D01*
X223167682Y-84830843D02*
X223197606Y-84821277D01*
X223197606Y-84821277D02*
X223243103Y-84809996D01*
X223243103Y-84809996D02*
X223308209Y-84796093D01*
X223308209Y-84796093D02*
X223396961Y-84778663D01*
X223396961Y-84778663D02*
X223513393Y-84756798D01*
X223513393Y-84756798D02*
X223661542Y-84729591D01*
X223661542Y-84729591D02*
X223693618Y-84723741D01*
X223693618Y-84723741D02*
X223788686Y-84705374D01*
X223788686Y-84705374D02*
X223871565Y-84687405D01*
X223871565Y-84687405D02*
X223934930Y-84671569D01*
X223934930Y-84671569D02*
X223971458Y-84659600D01*
X223971458Y-84659600D02*
X223976356Y-84656810D01*
X223976356Y-84656810D02*
X223984427Y-84632072D01*
X223984427Y-84632072D02*
X223990987Y-84576790D01*
X223990987Y-84576790D02*
X223996033Y-84497389D01*
X223996033Y-84497389D02*
X223999559Y-84400296D01*
X223999559Y-84400296D02*
X224001561Y-84291938D01*
X224001561Y-84291938D02*
X224002036Y-84178740D01*
X224002036Y-84178740D02*
X224000977Y-84067128D01*
X224000977Y-84067128D02*
X223998382Y-83963529D01*
X223998382Y-83963529D02*
X223994246Y-83874368D01*
X223994246Y-83874368D02*
X223988563Y-83806072D01*
X223988563Y-83806072D02*
X223981331Y-83765066D01*
X223981331Y-83765066D02*
X223976971Y-83756674D01*
X223976971Y-83756674D02*
X223952698Y-83748208D01*
X223952698Y-83748208D02*
X223897426Y-83734435D01*
X223897426Y-83734435D02*
X223816662Y-83716550D01*
X223816662Y-83716550D02*
X223715912Y-83695748D01*
X223715912Y-83695748D02*
X223600683Y-83673223D01*
X223600683Y-83673223D02*
X223537902Y-83661418D01*
X223537902Y-83661418D02*
X223418787Y-83639151D01*
X223418787Y-83639151D02*
X223312565Y-83618979D01*
X223312565Y-83618979D02*
X223224427Y-83601915D01*
X223224427Y-83601915D02*
X223159566Y-83588969D01*
X223159566Y-83588969D02*
X223123174Y-83581155D01*
X223123174Y-83581155D02*
X223117184Y-83579422D01*
X223117184Y-83579422D02*
X223107061Y-83559890D01*
X223107061Y-83559890D02*
X223085662Y-83512843D01*
X223085662Y-83512843D02*
X223055839Y-83445003D01*
X223055839Y-83445003D02*
X223020445Y-83363091D01*
X223020445Y-83363091D02*
X222982332Y-83273828D01*
X222982332Y-83273828D02*
X222944353Y-83183935D01*
X222944353Y-83183935D02*
X222909360Y-83100135D01*
X222909360Y-83100135D02*
X222880206Y-83029147D01*
X222880206Y-83029147D02*
X222859743Y-82977694D01*
X222859743Y-82977694D02*
X222850823Y-82952497D01*
X222850823Y-82952497D02*
X222850657Y-82951396D01*
X222850657Y-82951396D02*
X222860769Y-82931519D01*
X222860769Y-82931519D02*
X222889117Y-82885777D01*
X222889117Y-82885777D02*
X222932723Y-82818717D01*
X222932723Y-82818717D02*
X222988606Y-82734884D01*
X222988606Y-82734884D02*
X223053787Y-82638826D01*
X223053787Y-82638826D02*
X223091679Y-82583650D01*
X223091679Y-82583650D02*
X223160725Y-82482481D01*
X223160725Y-82482481D02*
X223222050Y-82390630D01*
X223222050Y-82390630D02*
X223272663Y-82312744D01*
X223272663Y-82312744D02*
X223309571Y-82253469D01*
X223309571Y-82253469D02*
X223329782Y-82217451D01*
X223329782Y-82217451D02*
X223332701Y-82209377D01*
X223332701Y-82209377D02*
X223320153Y-82190584D01*
X223320153Y-82190584D02*
X223285463Y-82150457D01*
X223285463Y-82150457D02*
X223233063Y-82093493D01*
X223233063Y-82093493D02*
X223167384Y-82024185D01*
X223167384Y-82024185D02*
X223092856Y-81947031D01*
X223092856Y-81947031D02*
X223013913Y-81866525D01*
X223013913Y-81866525D02*
X222934983Y-81787163D01*
X222934983Y-81787163D02*
X222860500Y-81713440D01*
X222860500Y-81713440D02*
X222794894Y-81649852D01*
X222794894Y-81649852D02*
X222742596Y-81600894D01*
X222742596Y-81600894D02*
X222708039Y-81571061D01*
X222708039Y-81571061D02*
X222696478Y-81563942D01*
X222696478Y-81563942D02*
X222677654Y-81573953D01*
X222677654Y-81573953D02*
X222632631Y-81602078D01*
X222632631Y-81602078D02*
X222565787Y-81645454D01*
X222565787Y-81645454D02*
X222481499Y-81701218D01*
X222481499Y-81701218D02*
X222384144Y-81766506D01*
X222384144Y-81766506D02*
X222310707Y-81816246D01*
X222310707Y-81816246D02*
X221939667Y-82068551D01*
X221939667Y-82068551D02*
X221321095Y-81813555D01*
X221321095Y-81813555D02*
X221237275Y-81368931D01*
X221237275Y-81368931D02*
X221153454Y-80924307D01*
X221153454Y-80924307D02*
X220228006Y-80924307D01*
X220228006Y-80924307D02*
X220144186Y-81368931D01*
X220144186Y-81368931D02*
X220144186Y-81368931D01*
G36*
X221237275Y-81368931D02*
G01*
X221321095Y-81813555D01*
X221939667Y-82068551D01*
X222310707Y-81816246D01*
X222384144Y-81766506D01*
X222481499Y-81701218D01*
X222565787Y-81645454D01*
X222632631Y-81602078D01*
X222677654Y-81573953D01*
X222696478Y-81563942D01*
X222708039Y-81571061D01*
X222742596Y-81600894D01*
X222794894Y-81649852D01*
X222860500Y-81713440D01*
X222934983Y-81787163D01*
X223013913Y-81866525D01*
X223092856Y-81947031D01*
X223167384Y-82024185D01*
X223233063Y-82093493D01*
X223285463Y-82150457D01*
X223320153Y-82190584D01*
X223332701Y-82209377D01*
X223329782Y-82217451D01*
X223309571Y-82253469D01*
X223272663Y-82312744D01*
X223222050Y-82390630D01*
X223160725Y-82482481D01*
X223091679Y-82583650D01*
X223053787Y-82638826D01*
X222988606Y-82734884D01*
X222932723Y-82818717D01*
X222889117Y-82885777D01*
X222860769Y-82931519D01*
X222850657Y-82951396D01*
X222850823Y-82952497D01*
X222859743Y-82977694D01*
X222880206Y-83029147D01*
X222909360Y-83100135D01*
X222944353Y-83183935D01*
X222982332Y-83273828D01*
X223020445Y-83363091D01*
X223055839Y-83445003D01*
X223085662Y-83512843D01*
X223107061Y-83559890D01*
X223117184Y-83579422D01*
X223123174Y-83581155D01*
X223159566Y-83588969D01*
X223224427Y-83601915D01*
X223312565Y-83618979D01*
X223418787Y-83639151D01*
X223537902Y-83661418D01*
X223600683Y-83673223D01*
X223715912Y-83695748D01*
X223816662Y-83716550D01*
X223897426Y-83734435D01*
X223952698Y-83748208D01*
X223976971Y-83756674D01*
X223981331Y-83765066D01*
X223988563Y-83806072D01*
X223994246Y-83874368D01*
X223998382Y-83963529D01*
X224000977Y-84067128D01*
X224002036Y-84178740D01*
X224001561Y-84291938D01*
X223999559Y-84400296D01*
X223996033Y-84497389D01*
X223990987Y-84576790D01*
X223984427Y-84632072D01*
X223976356Y-84656810D01*
X223971458Y-84659600D01*
X223934930Y-84671569D01*
X223871565Y-84687405D01*
X223788686Y-84705374D01*
X223693618Y-84723741D01*
X223661542Y-84729591D01*
X223513393Y-84756798D01*
X223396961Y-84778663D01*
X223308209Y-84796093D01*
X223243103Y-84809996D01*
X223197606Y-84821277D01*
X223167682Y-84830843D01*
X223149294Y-84839601D01*
X223138407Y-84848457D01*
X223137142Y-84849943D01*
X223119338Y-84880931D01*
X223092994Y-84937634D01*
X223060661Y-85013399D01*
X223024893Y-85101574D01*
X222988244Y-85195507D01*
X222953266Y-85288547D01*
X222922513Y-85374041D01*
X222898538Y-85445336D01*
X222883895Y-85495782D01*
X222881136Y-85518726D01*
X222882981Y-85521703D01*
X222902075Y-85550493D01*
X222937984Y-85603595D01*
X222987378Y-85676117D01*
X223046927Y-85763167D01*
X223113303Y-85859854D01*
X223131520Y-85886456D01*
X223195577Y-85981875D01*
X223250937Y-86067212D01*
X223294439Y-86137405D01*
X223322924Y-86187394D01*
X223333232Y-86212116D01*
X223331011Y-86218616D01*
X223307858Y-86250644D01*
X223262177Y-86302945D01*
X223197241Y-86371999D01*
X223116319Y-86454286D01*
X223022685Y-86546286D01*
X222969165Y-86597781D01*
X222884542Y-86677983D01*
X222810475Y-86746678D01*
X222750941Y-86800252D01*
X222709917Y-86835085D01*
X222691381Y-86847563D01*
X222678646Y-86842938D01*
X222639436Y-86821057D01*
X222582495Y-86785273D01*
X222515250Y-86740117D01*
X222467438Y-86707165D01*
X222371985Y-86641727D01*
X222270125Y-86572228D01*
X222177088Y-86509075D01*
X221994832Y-86385800D01*
X221841841Y-86468520D01*
X221805817Y-86487613D01*
X221740303Y-86520272D01*
X221689640Y-86542819D01*
X221662564Y-86551226D01*
X221653703Y-86540430D01*
X221631699Y-86499323D01*
X221599199Y-86431549D01*
X221558010Y-86341409D01*
X221509942Y-86233205D01*
X221456802Y-86111237D01*
X221400399Y-85979808D01*
X221342542Y-85843218D01*
X221285038Y-85705767D01*
X221229697Y-85571758D01*
X221178326Y-85445491D01*
X221132735Y-85331268D01*
X221094732Y-85233390D01*
X221066124Y-85156157D01*
X221048721Y-85103871D01*
X221044331Y-85080833D01*
X221044628Y-85080160D01*
X221065077Y-85058863D01*
X221107850Y-85025508D01*
X221164117Y-84987011D01*
X221181877Y-84975256D01*
X221317014Y-84863735D01*
X221428856Y-84730906D01*
X221514755Y-84582298D01*
X221572062Y-84423440D01*
X221598131Y-84259860D01*
X221590313Y-84097088D01*
X221558644Y-83952315D01*
X221501782Y-83806124D01*
X221418888Y-83675703D01*
X221305131Y-83551813D01*
X221260433Y-83512235D01*
X221115935Y-83414723D01*
X220959838Y-83349050D01*
X220796667Y-83314630D01*
X220630943Y-83310874D01*
X220467192Y-83337194D01*
X220309936Y-83393003D01*
X220163698Y-83477714D01*
X220033004Y-83590737D01*
X219922374Y-83731487D01*
X219901105Y-83766342D01*
X219828810Y-83925655D01*
X219790415Y-84091552D01*
X219784914Y-84259737D01*
X219811301Y-84425913D01*
X219868570Y-84585784D01*
X219955717Y-84735053D01*
X220071736Y-84869423D01*
X220215622Y-84984599D01*
X220220294Y-84987702D01*
X220275964Y-85026933D01*
X220317689Y-85060286D01*
X220336746Y-85080833D01*
X220334342Y-85096941D01*
X220319391Y-85143844D01*
X220292881Y-85216539D01*
X220256620Y-85310725D01*
X220212416Y-85422098D01*
X220162076Y-85546358D01*
X220107407Y-85679202D01*
X220050218Y-85816327D01*
X219992316Y-85953432D01*
X219935510Y-86086215D01*
X219881606Y-86210374D01*
X219832412Y-86321606D01*
X219789737Y-86415609D01*
X219755387Y-86488082D01*
X219731171Y-86534722D01*
X219718897Y-86551226D01*
X219708689Y-86548991D01*
X219668586Y-86532926D01*
X219609318Y-86504759D01*
X219539619Y-86468520D01*
X219386629Y-86385800D01*
X219204373Y-86509075D01*
X219150527Y-86545579D01*
X219050374Y-86613784D01*
X218950525Y-86682098D01*
X218866211Y-86740117D01*
X218819679Y-86771736D01*
X218759200Y-86811020D01*
X218714357Y-86837912D01*
X218692455Y-86847883D01*
X218683045Y-86843650D01*
X218649031Y-86817721D01*
X218596595Y-86772070D01*
X218530301Y-86711186D01*
X218454713Y-86639561D01*
X218374396Y-86561683D01*
X218293913Y-86482045D01*
X218217829Y-86405135D01*
X218150707Y-86335445D01*
X218097112Y-86277464D01*
X218061608Y-86235684D01*
X218048759Y-86214593D01*
X218049500Y-86210581D01*
X218064793Y-86177920D01*
X218097462Y-86121412D01*
X218144350Y-86046163D01*
X218202301Y-85957275D01*
X218268157Y-85859854D01*
X218286627Y-85832982D01*
X218351482Y-85738423D01*
X218408609Y-85654827D01*
X218454678Y-85587084D01*
X218486359Y-85540086D01*
X218500324Y-85518726D01*
X218500668Y-85517811D01*
X218496546Y-85491678D01*
X218480807Y-85438740D01*
X218456004Y-85365647D01*
X218424689Y-85279052D01*
X218389417Y-85185608D01*
X218352740Y-85091965D01*
X218317212Y-85004777D01*
X218285386Y-84930695D01*
X218259816Y-84876371D01*
X218243053Y-84848457D01*
X218241374Y-84846724D01*
X218229372Y-84837956D01*
X218209103Y-84829115D01*
X218176529Y-84819292D01*
X218127616Y-84807583D01*
X218058327Y-84793080D01*
X217964625Y-84774876D01*
X217842476Y-84752066D01*
X217687842Y-84723741D01*
X217655770Y-84717780D01*
X217563893Y-84699352D01*
X217486607Y-84681892D01*
X217431236Y-84667133D01*
X217405105Y-84656810D01*
X217400733Y-84648197D01*
X217393445Y-84606826D01*
X217387669Y-84538241D01*
X217383410Y-84448868D01*
X217380673Y-84345135D01*
X217379462Y-84233465D01*
X217379782Y-84120287D01*
X217381636Y-84012026D01*
X217385030Y-83915108D01*
X217389967Y-83835959D01*
X217396452Y-83781006D01*
X217404489Y-83756674D01*
X217412696Y-83753079D01*
X217453519Y-83741748D01*
X217522524Y-83725722D01*
X217614203Y-83706195D01*
X217723050Y-83684362D01*
X217843558Y-83661418D01*
X217909357Y-83649159D01*
X218022135Y-83627901D01*
X218119207Y-83609287D01*
X218195382Y-83594328D01*
X218245469Y-83584036D01*
X218264276Y-83579422D01*
X218264983Y-83578471D01*
X218276961Y-83554310D01*
X218299794Y-83503694D01*
X218330630Y-83433338D01*
X218366613Y-83349958D01*
X218404891Y-83260270D01*
X218442609Y-83170989D01*
X218476913Y-83088832D01*
X218504949Y-83020513D01*
X218523864Y-82972748D01*
X218530803Y-82952254D01*
X218527742Y-82945043D01*
X218507372Y-82910728D01*
X218470422Y-82852970D01*
X218419860Y-82776299D01*
X218358657Y-82685248D01*
X218289781Y-82584350D01*
X218251994Y-82529093D01*
X218186782Y-82432215D01*
X218130871Y-82347193D01*
X218087241Y-82278662D01*
X218058877Y-82231260D01*
X218048759Y-82209623D01*
X218055790Y-82197887D01*
X218085197Y-82162818D01*
X218133441Y-82109745D01*
X218196093Y-82043164D01*
X218268725Y-81967574D01*
X218346908Y-81887472D01*
X218426214Y-81807354D01*
X218502213Y-81731718D01*
X218570478Y-81665062D01*
X218626580Y-81611882D01*
X218666090Y-81576676D01*
X218684579Y-81563942D01*
X218694843Y-81568893D01*
X218732530Y-81591857D01*
X218793348Y-81630938D01*
X218872913Y-81683272D01*
X218966843Y-81745996D01*
X219070754Y-81816246D01*
X219441794Y-82068551D01*
X219751080Y-81941053D01*
X220060365Y-81813555D01*
X220144186Y-81368931D01*
X220228006Y-80924307D01*
X221153454Y-80924307D01*
X221237275Y-81368931D01*
G37*
X221237275Y-81368931D02*
X221321095Y-81813555D01*
X221939667Y-82068551D01*
X222310707Y-81816246D01*
X222384144Y-81766506D01*
X222481499Y-81701218D01*
X222565787Y-81645454D01*
X222632631Y-81602078D01*
X222677654Y-81573953D01*
X222696478Y-81563942D01*
X222708039Y-81571061D01*
X222742596Y-81600894D01*
X222794894Y-81649852D01*
X222860500Y-81713440D01*
X222934983Y-81787163D01*
X223013913Y-81866525D01*
X223092856Y-81947031D01*
X223167384Y-82024185D01*
X223233063Y-82093493D01*
X223285463Y-82150457D01*
X223320153Y-82190584D01*
X223332701Y-82209377D01*
X223329782Y-82217451D01*
X223309571Y-82253469D01*
X223272663Y-82312744D01*
X223222050Y-82390630D01*
X223160725Y-82482481D01*
X223091679Y-82583650D01*
X223053787Y-82638826D01*
X222988606Y-82734884D01*
X222932723Y-82818717D01*
X222889117Y-82885777D01*
X222860769Y-82931519D01*
X222850657Y-82951396D01*
X222850823Y-82952497D01*
X222859743Y-82977694D01*
X222880206Y-83029147D01*
X222909360Y-83100135D01*
X222944353Y-83183935D01*
X222982332Y-83273828D01*
X223020445Y-83363091D01*
X223055839Y-83445003D01*
X223085662Y-83512843D01*
X223107061Y-83559890D01*
X223117184Y-83579422D01*
X223123174Y-83581155D01*
X223159566Y-83588969D01*
X223224427Y-83601915D01*
X223312565Y-83618979D01*
X223418787Y-83639151D01*
X223537902Y-83661418D01*
X223600683Y-83673223D01*
X223715912Y-83695748D01*
X223816662Y-83716550D01*
X223897426Y-83734435D01*
X223952698Y-83748208D01*
X223976971Y-83756674D01*
X223981331Y-83765066D01*
X223988563Y-83806072D01*
X223994246Y-83874368D01*
X223998382Y-83963529D01*
X224000977Y-84067128D01*
X224002036Y-84178740D01*
X224001561Y-84291938D01*
X223999559Y-84400296D01*
X223996033Y-84497389D01*
X223990987Y-84576790D01*
X223984427Y-84632072D01*
X223976356Y-84656810D01*
X223971458Y-84659600D01*
X223934930Y-84671569D01*
X223871565Y-84687405D01*
X223788686Y-84705374D01*
X223693618Y-84723741D01*
X223661542Y-84729591D01*
X223513393Y-84756798D01*
X223396961Y-84778663D01*
X223308209Y-84796093D01*
X223243103Y-84809996D01*
X223197606Y-84821277D01*
X223167682Y-84830843D01*
X223149294Y-84839601D01*
X223138407Y-84848457D01*
X223137142Y-84849943D01*
X223119338Y-84880931D01*
X223092994Y-84937634D01*
X223060661Y-85013399D01*
X223024893Y-85101574D01*
X222988244Y-85195507D01*
X222953266Y-85288547D01*
X222922513Y-85374041D01*
X222898538Y-85445336D01*
X222883895Y-85495782D01*
X222881136Y-85518726D01*
X222882981Y-85521703D01*
X222902075Y-85550493D01*
X222937984Y-85603595D01*
X222987378Y-85676117D01*
X223046927Y-85763167D01*
X223113303Y-85859854D01*
X223131520Y-85886456D01*
X223195577Y-85981875D01*
X223250937Y-86067212D01*
X223294439Y-86137405D01*
X223322924Y-86187394D01*
X223333232Y-86212116D01*
X223331011Y-86218616D01*
X223307858Y-86250644D01*
X223262177Y-86302945D01*
X223197241Y-86371999D01*
X223116319Y-86454286D01*
X223022685Y-86546286D01*
X222969165Y-86597781D01*
X222884542Y-86677983D01*
X222810475Y-86746678D01*
X222750941Y-86800252D01*
X222709917Y-86835085D01*
X222691381Y-86847563D01*
X222678646Y-86842938D01*
X222639436Y-86821057D01*
X222582495Y-86785273D01*
X222515250Y-86740117D01*
X222467438Y-86707165D01*
X222371985Y-86641727D01*
X222270125Y-86572228D01*
X222177088Y-86509075D01*
X221994832Y-86385800D01*
X221841841Y-86468520D01*
X221805817Y-86487613D01*
X221740303Y-86520272D01*
X221689640Y-86542819D01*
X221662564Y-86551226D01*
X221653703Y-86540430D01*
X221631699Y-86499323D01*
X221599199Y-86431549D01*
X221558010Y-86341409D01*
X221509942Y-86233205D01*
X221456802Y-86111237D01*
X221400399Y-85979808D01*
X221342542Y-85843218D01*
X221285038Y-85705767D01*
X221229697Y-85571758D01*
X221178326Y-85445491D01*
X221132735Y-85331268D01*
X221094732Y-85233390D01*
X221066124Y-85156157D01*
X221048721Y-85103871D01*
X221044331Y-85080833D01*
X221044628Y-85080160D01*
X221065077Y-85058863D01*
X221107850Y-85025508D01*
X221164117Y-84987011D01*
X221181877Y-84975256D01*
X221317014Y-84863735D01*
X221428856Y-84730906D01*
X221514755Y-84582298D01*
X221572062Y-84423440D01*
X221598131Y-84259860D01*
X221590313Y-84097088D01*
X221558644Y-83952315D01*
X221501782Y-83806124D01*
X221418888Y-83675703D01*
X221305131Y-83551813D01*
X221260433Y-83512235D01*
X221115935Y-83414723D01*
X220959838Y-83349050D01*
X220796667Y-83314630D01*
X220630943Y-83310874D01*
X220467192Y-83337194D01*
X220309936Y-83393003D01*
X220163698Y-83477714D01*
X220033004Y-83590737D01*
X219922374Y-83731487D01*
X219901105Y-83766342D01*
X219828810Y-83925655D01*
X219790415Y-84091552D01*
X219784914Y-84259737D01*
X219811301Y-84425913D01*
X219868570Y-84585784D01*
X219955717Y-84735053D01*
X220071736Y-84869423D01*
X220215622Y-84984599D01*
X220220294Y-84987702D01*
X220275964Y-85026933D01*
X220317689Y-85060286D01*
X220336746Y-85080833D01*
X220334342Y-85096941D01*
X220319391Y-85143844D01*
X220292881Y-85216539D01*
X220256620Y-85310725D01*
X220212416Y-85422098D01*
X220162076Y-85546358D01*
X220107407Y-85679202D01*
X220050218Y-85816327D01*
X219992316Y-85953432D01*
X219935510Y-86086215D01*
X219881606Y-86210374D01*
X219832412Y-86321606D01*
X219789737Y-86415609D01*
X219755387Y-86488082D01*
X219731171Y-86534722D01*
X219718897Y-86551226D01*
X219708689Y-86548991D01*
X219668586Y-86532926D01*
X219609318Y-86504759D01*
X219539619Y-86468520D01*
X219386629Y-86385800D01*
X219204373Y-86509075D01*
X219150527Y-86545579D01*
X219050374Y-86613784D01*
X218950525Y-86682098D01*
X218866211Y-86740117D01*
X218819679Y-86771736D01*
X218759200Y-86811020D01*
X218714357Y-86837912D01*
X218692455Y-86847883D01*
X218683045Y-86843650D01*
X218649031Y-86817721D01*
X218596595Y-86772070D01*
X218530301Y-86711186D01*
X218454713Y-86639561D01*
X218374396Y-86561683D01*
X218293913Y-86482045D01*
X218217829Y-86405135D01*
X218150707Y-86335445D01*
X218097112Y-86277464D01*
X218061608Y-86235684D01*
X218048759Y-86214593D01*
X218049500Y-86210581D01*
X218064793Y-86177920D01*
X218097462Y-86121412D01*
X218144350Y-86046163D01*
X218202301Y-85957275D01*
X218268157Y-85859854D01*
X218286627Y-85832982D01*
X218351482Y-85738423D01*
X218408609Y-85654827D01*
X218454678Y-85587084D01*
X218486359Y-85540086D01*
X218500324Y-85518726D01*
X218500668Y-85517811D01*
X218496546Y-85491678D01*
X218480807Y-85438740D01*
X218456004Y-85365647D01*
X218424689Y-85279052D01*
X218389417Y-85185608D01*
X218352740Y-85091965D01*
X218317212Y-85004777D01*
X218285386Y-84930695D01*
X218259816Y-84876371D01*
X218243053Y-84848457D01*
X218241374Y-84846724D01*
X218229372Y-84837956D01*
X218209103Y-84829115D01*
X218176529Y-84819292D01*
X218127616Y-84807583D01*
X218058327Y-84793080D01*
X217964625Y-84774876D01*
X217842476Y-84752066D01*
X217687842Y-84723741D01*
X217655770Y-84717780D01*
X217563893Y-84699352D01*
X217486607Y-84681892D01*
X217431236Y-84667133D01*
X217405105Y-84656810D01*
X217400733Y-84648197D01*
X217393445Y-84606826D01*
X217387669Y-84538241D01*
X217383410Y-84448868D01*
X217380673Y-84345135D01*
X217379462Y-84233465D01*
X217379782Y-84120287D01*
X217381636Y-84012026D01*
X217385030Y-83915108D01*
X217389967Y-83835959D01*
X217396452Y-83781006D01*
X217404489Y-83756674D01*
X217412696Y-83753079D01*
X217453519Y-83741748D01*
X217522524Y-83725722D01*
X217614203Y-83706195D01*
X217723050Y-83684362D01*
X217843558Y-83661418D01*
X217909357Y-83649159D01*
X218022135Y-83627901D01*
X218119207Y-83609287D01*
X218195382Y-83594328D01*
X218245469Y-83584036D01*
X218264276Y-83579422D01*
X218264983Y-83578471D01*
X218276961Y-83554310D01*
X218299794Y-83503694D01*
X218330630Y-83433338D01*
X218366613Y-83349958D01*
X218404891Y-83260270D01*
X218442609Y-83170989D01*
X218476913Y-83088832D01*
X218504949Y-83020513D01*
X218523864Y-82972748D01*
X218530803Y-82952254D01*
X218527742Y-82945043D01*
X218507372Y-82910728D01*
X218470422Y-82852970D01*
X218419860Y-82776299D01*
X218358657Y-82685248D01*
X218289781Y-82584350D01*
X218251994Y-82529093D01*
X218186782Y-82432215D01*
X218130871Y-82347193D01*
X218087241Y-82278662D01*
X218058877Y-82231260D01*
X218048759Y-82209623D01*
X218055790Y-82197887D01*
X218085197Y-82162818D01*
X218133441Y-82109745D01*
X218196093Y-82043164D01*
X218268725Y-81967574D01*
X218346908Y-81887472D01*
X218426214Y-81807354D01*
X218502213Y-81731718D01*
X218570478Y-81665062D01*
X218626580Y-81611882D01*
X218666090Y-81576676D01*
X218684579Y-81563942D01*
X218694843Y-81568893D01*
X218732530Y-81591857D01*
X218793348Y-81630938D01*
X218872913Y-81683272D01*
X218966843Y-81745996D01*
X219070754Y-81816246D01*
X219441794Y-82068551D01*
X219751080Y-81941053D01*
X220060365Y-81813555D01*
X220144186Y-81368931D01*
X220228006Y-80924307D01*
X221153454Y-80924307D01*
X221237275Y-81368931D01*
%TD*%
%LPC*%
D12*
%TO.C,H1*%
X226314000Y-73914000D03*
D13*
X226314000Y-73914000D03*
%TD*%
%TO.C,H2*%
X73279000Y-73914000D03*
D12*
X73279000Y-73914000D03*
%TD*%
D14*
%TO.C,J3*%
X110230000Y-76340000D03*
X110230000Y-71260000D03*
D15*
X112770000Y-76340000D03*
X112770000Y-71260000D03*
X115310000Y-76340000D03*
X115310000Y-71260000D03*
X117850000Y-76340000D03*
X117850000Y-71260000D03*
X120390000Y-76340000D03*
X120390000Y-71260000D03*
X122930000Y-76340000D03*
X122930000Y-71260000D03*
X125470000Y-76340000D03*
X125470000Y-71260000D03*
X128010000Y-76340000D03*
X128010000Y-71260000D03*
X130550000Y-76340000D03*
X130550000Y-71260000D03*
X133090000Y-76340000D03*
X133090000Y-71260000D03*
X135630000Y-76340000D03*
X135630000Y-71260000D03*
X138170000Y-76340000D03*
X138170000Y-71260000D03*
X140710000Y-76340000D03*
X140710000Y-71260000D03*
X143250000Y-76340000D03*
X143250000Y-71260000D03*
X145790000Y-76340000D03*
X145790000Y-71260000D03*
X148330000Y-76340000D03*
X148330000Y-71260000D03*
X150870000Y-76340000D03*
X150870000Y-71260000D03*
X153410000Y-76340000D03*
X153410000Y-71260000D03*
X155950000Y-76340000D03*
X155950000Y-71260000D03*
X158490000Y-76340000D03*
X158490000Y-71260000D03*
X161030000Y-76340000D03*
X161030000Y-71260000D03*
X163570000Y-76340000D03*
X163570000Y-71260000D03*
X166110000Y-76340000D03*
X166110000Y-71260000D03*
X168650000Y-76340000D03*
X168650000Y-71260000D03*
X171190000Y-76340000D03*
X171190000Y-71260000D03*
X173730000Y-76340000D03*
X173730000Y-71260000D03*
X176270000Y-76340000D03*
X176270000Y-71260000D03*
X178810000Y-76340000D03*
X178810000Y-71260000D03*
X181350000Y-76340000D03*
X181350000Y-71260000D03*
X183890000Y-76340000D03*
X183890000Y-71260000D03*
X186430000Y-76340000D03*
X186430000Y-71260000D03*
X188970000Y-76340000D03*
X188970000Y-71260000D03*
%TD*%
D16*
%TO.C,J1*%
X95545000Y-84652500D03*
D17*
X95545000Y-82112500D03*
X98085000Y-84652500D03*
X98085000Y-82112500D03*
X100625000Y-84652500D03*
X100625000Y-82112500D03*
X103165000Y-84652500D03*
X103165000Y-82112500D03*
X105705000Y-84652500D03*
X105705000Y-82112500D03*
X108245000Y-84652500D03*
X108245000Y-82112500D03*
X110785000Y-84652500D03*
X110785000Y-82112500D03*
X113325000Y-84652500D03*
X113325000Y-82112500D03*
X115865000Y-84652500D03*
X115865000Y-82112500D03*
X118405000Y-84652500D03*
X118405000Y-82112500D03*
X120945000Y-84652500D03*
X120945000Y-82112500D03*
X123485000Y-84652500D03*
X123485000Y-82112500D03*
X126025000Y-84652500D03*
X126025000Y-82112500D03*
X128565000Y-84652500D03*
X128565000Y-82112500D03*
X131105000Y-84652500D03*
X131105000Y-82112500D03*
X133645000Y-84652500D03*
X133645000Y-82112500D03*
X136185000Y-84652500D03*
X136185000Y-82112500D03*
X138725000Y-84652500D03*
X138725000Y-82112500D03*
X141265000Y-84652500D03*
X141265000Y-82112500D03*
X143805000Y-84652500D03*
X143805000Y-82112500D03*
%TD*%
D16*
%TO.C,J2*%
X155800000Y-84600000D03*
D17*
X155800000Y-82060000D03*
X158340000Y-84600000D03*
X158340000Y-82060000D03*
X160880000Y-84600000D03*
X160880000Y-82060000D03*
X163420000Y-84600000D03*
X163420000Y-82060000D03*
X165960000Y-84600000D03*
X165960000Y-82060000D03*
X168500000Y-84600000D03*
X168500000Y-82060000D03*
X171040000Y-84600000D03*
X171040000Y-82060000D03*
X173580000Y-84600000D03*
X173580000Y-82060000D03*
X176120000Y-84600000D03*
X176120000Y-82060000D03*
X178660000Y-84600000D03*
X178660000Y-82060000D03*
X181200000Y-84600000D03*
X181200000Y-82060000D03*
X183740000Y-84600000D03*
X183740000Y-82060000D03*
X186280000Y-84600000D03*
X186280000Y-82060000D03*
X188820000Y-84600000D03*
X188820000Y-82060000D03*
X191360000Y-84600000D03*
X191360000Y-82060000D03*
X193900000Y-84600000D03*
X193900000Y-82060000D03*
X196440000Y-84600000D03*
X196440000Y-82060000D03*
X198980000Y-84600000D03*
X198980000Y-82060000D03*
X201520000Y-84600000D03*
X201520000Y-82060000D03*
X204060000Y-84600000D03*
X204060000Y-82060000D03*
%TD*%
M02*
