M48
; DRILL file {KiCad (6.0.0-0)} date Thursday, August 25, 2022 at 01:57:31 AM
; FORMAT={-:-/ absolute / inch / decimal}
; #@! TF.CreationDate,2022-08-25T01:57:31-06:00
; #@! TF.GenerationSoftware,Kicad,Pcbnew,(6.0.0-0)
; #@! TF.FileFunction,Plated,1,2,PTH
FMAT,2
INCH
; #@! TA.AperFunction,Plated,PTH,ComponentDrill
T1C0.0394
; #@! TA.AperFunction,Plated,PTH,ComponentDrill
T2C0.1378
%
G90
G05
T1
X3.7616Y-3.2328
X3.7616Y-3.3328
X3.8616Y-3.2328
X3.8616Y-3.3328
X3.9616Y-3.2328
X3.9616Y-3.3328
X4.0616Y-3.2328
X4.0616Y-3.3328
X4.1616Y-3.2328
X4.1616Y-3.3328
X4.2616Y-3.2328
X4.2616Y-3.3328
X4.3398Y-2.8055
X4.3398Y-3.0055
X4.3616Y-3.2328
X4.3616Y-3.3328
X4.4398Y-2.8055
X4.4398Y-3.0055
X4.4616Y-3.2328
X4.4616Y-3.3328
X4.5398Y-2.8055
X4.5398Y-3.0055
X4.5616Y-3.2328
X4.5616Y-3.3328
X4.6398Y-2.8055
X4.6398Y-3.0055
X4.6616Y-3.2328
X4.6616Y-3.3328
X4.7398Y-2.8055
X4.7398Y-3.0055
X4.7616Y-3.2328
X4.7616Y-3.3328
X4.8398Y-2.8055
X4.8398Y-3.0055
X4.8616Y-3.2328
X4.8616Y-3.3328
X4.9398Y-2.8055
X4.9398Y-3.0055
X4.9616Y-3.2328
X4.9616Y-3.3328
X5.0398Y-2.8055
X5.0398Y-3.0055
X5.0616Y-3.2328
X5.0616Y-3.3328
X5.1398Y-2.8055
X5.1398Y-3.0055
X5.1616Y-3.2328
X5.1616Y-3.3328
X5.2398Y-2.8055
X5.2398Y-3.0055
X5.2616Y-3.2328
X5.2616Y-3.3328
X5.3398Y-2.8055
X5.3398Y-3.0055
X5.3616Y-3.2328
X5.3616Y-3.3328
X5.4398Y-2.8055
X5.4398Y-3.0055
X5.4616Y-3.2328
X5.4616Y-3.3328
X5.5398Y-2.8055
X5.5398Y-3.0055
X5.5616Y-3.2328
X5.5616Y-3.3328
X5.6398Y-2.8055
X5.6398Y-3.0055
X5.6616Y-3.2328
X5.6616Y-3.3328
X5.7398Y-2.8055
X5.7398Y-3.0055
X5.8398Y-2.8055
X5.8398Y-3.0055
X5.9398Y-2.8055
X5.9398Y-3.0055
X6.0398Y-2.8055
X6.0398Y-3.0055
X6.1339Y-3.2307
X6.1339Y-3.3307
X6.1398Y-2.8055
X6.1398Y-3.0055
X6.2339Y-3.2307
X6.2339Y-3.3307
X6.2398Y-2.8055
X6.2398Y-3.0055
X6.3339Y-3.2307
X6.3339Y-3.3307
X6.3398Y-2.8055
X6.3398Y-3.0055
X6.4339Y-3.2307
X6.4339Y-3.3307
X6.4398Y-2.8055
X6.4398Y-3.0055
X6.5339Y-3.2307
X6.5339Y-3.3307
X6.5398Y-2.8055
X6.5398Y-3.0055
X6.6339Y-3.2307
X6.6339Y-3.3307
X6.6398Y-2.8055
X6.6398Y-3.0055
X6.7339Y-3.2307
X6.7339Y-3.3307
X6.7398Y-2.8055
X6.7398Y-3.0055
X6.8339Y-3.2307
X6.8339Y-3.3307
X6.8398Y-2.8055
X6.8398Y-3.0055
X6.9339Y-3.2307
X6.9339Y-3.3307
X6.9398Y-2.8055
X6.9398Y-3.0055
X7.0339Y-3.2307
X7.0339Y-3.3307
X7.0398Y-2.8055
X7.0398Y-3.0055
X7.1339Y-3.2307
X7.1339Y-3.3307
X7.1398Y-2.8055
X7.1398Y-3.0055
X7.2339Y-3.2307
X7.2339Y-3.3307
X7.2398Y-2.8055
X7.2398Y-3.0055
X7.3339Y-3.2307
X7.3339Y-3.3307
X7.3398Y-2.8055
X7.3398Y-3.0055
X7.4339Y-3.2307
X7.4339Y-3.3307
X7.4398Y-2.8055
X7.4398Y-3.0055
X7.5339Y-3.2307
X7.5339Y-3.3307
X7.6339Y-3.2307
X7.6339Y-3.3307
X7.7339Y-3.2307
X7.7339Y-3.3307
X7.8339Y-3.2307
X7.8339Y-3.3307
X7.9339Y-3.2307
X7.9339Y-3.3307
X8.0339Y-3.2307
X8.0339Y-3.3307
T2
X2.885Y-2.91
X8.91Y-2.91
T0
M30
