%TF.GenerationSoftware,KiCad,Pcbnew,(6.0.0-0)*%
%TF.CreationDate,2022-08-25T02:05:01-06:00*%
%TF.ProjectId,FlippyAdapter,466c6970-7079-4416-9461-707465722e6b,A*%
%TF.SameCoordinates,Original*%
%TF.FileFunction,Soldermask,Bot*%
%TF.FilePolarity,Negative*%
%FSLAX46Y46*%
G04 Gerber Fmt 4.6, Leading zero omitted, Abs format (unit mm)*
G04 Created by KiCad (PCBNEW (6.0.0-0)) date 2022-08-25 02:05:01*
%MOMM*%
%LPD*%
G01*
G04 APERTURE LIST*
G04 Aperture macros list*
%AMRoundRect*
0 Rectangle with rounded corners*
0 $1 Rounding radius*
0 $2 $3 $4 $5 $6 $7 $8 $9 X,Y pos of 4 corners*
0 Add a 4 corners polygon primitive as box body*
4,1,4,$2,$3,$4,$5,$6,$7,$8,$9,$2,$3,0*
0 Add four circle primitives for the rounded corners*
1,1,$1+$1,$2,$3*
1,1,$1+$1,$4,$5*
1,1,$1+$1,$6,$7*
1,1,$1+$1,$8,$9*
0 Add four rect primitives between the rounded corners*
20,1,$1+$1,$2,$3,$4,$5,0*
20,1,$1+$1,$4,$5,$6,$7,0*
20,1,$1+$1,$6,$7,$8,$9,0*
20,1,$1+$1,$8,$9,$2,$3,0*%
G04 Aperture macros list end*
%ADD10C,7.100000*%
%ADD11C,4.000000*%
%ADD12RoundRect,0.050000X0.850000X-0.850000X0.850000X0.850000X-0.850000X0.850000X-0.850000X-0.850000X0*%
%ADD13O,1.800000X1.800000*%
%ADD14RoundRect,0.300000X0.600000X-0.600000X0.600000X0.600000X-0.600000X0.600000X-0.600000X-0.600000X0*%
%ADD15C,1.800000*%
G04 APERTURE END LIST*
D10*
%TO.C,H1*%
X226314000Y-73914000D03*
D11*
X226314000Y-73914000D03*
%TD*%
%TO.C,H2*%
X73279000Y-73914000D03*
D10*
X73279000Y-73914000D03*
%TD*%
D12*
%TO.C,J3*%
X110230000Y-76340000D03*
X110230000Y-71260000D03*
D13*
X112770000Y-76340000D03*
X112770000Y-71260000D03*
X115310000Y-76340000D03*
X115310000Y-71260000D03*
X117850000Y-76340000D03*
X117850000Y-71260000D03*
X120390000Y-76340000D03*
X120390000Y-71260000D03*
X122930000Y-76340000D03*
X122930000Y-71260000D03*
X125470000Y-76340000D03*
X125470000Y-71260000D03*
X128010000Y-76340000D03*
X128010000Y-71260000D03*
X130550000Y-76340000D03*
X130550000Y-71260000D03*
X133090000Y-76340000D03*
X133090000Y-71260000D03*
X135630000Y-76340000D03*
X135630000Y-71260000D03*
X138170000Y-76340000D03*
X138170000Y-71260000D03*
X140710000Y-76340000D03*
X140710000Y-71260000D03*
X143250000Y-76340000D03*
X143250000Y-71260000D03*
X145790000Y-76340000D03*
X145790000Y-71260000D03*
X148330000Y-76340000D03*
X148330000Y-71260000D03*
X150870000Y-76340000D03*
X150870000Y-71260000D03*
X153410000Y-76340000D03*
X153410000Y-71260000D03*
X155950000Y-76340000D03*
X155950000Y-71260000D03*
X158490000Y-76340000D03*
X158490000Y-71260000D03*
X161030000Y-76340000D03*
X161030000Y-71260000D03*
X163570000Y-76340000D03*
X163570000Y-71260000D03*
X166110000Y-76340000D03*
X166110000Y-71260000D03*
X168650000Y-76340000D03*
X168650000Y-71260000D03*
X171190000Y-76340000D03*
X171190000Y-71260000D03*
X173730000Y-76340000D03*
X173730000Y-71260000D03*
X176270000Y-76340000D03*
X176270000Y-71260000D03*
X178810000Y-76340000D03*
X178810000Y-71260000D03*
X181350000Y-76340000D03*
X181350000Y-71260000D03*
X183890000Y-76340000D03*
X183890000Y-71260000D03*
X186430000Y-76340000D03*
X186430000Y-71260000D03*
X188970000Y-76340000D03*
X188970000Y-71260000D03*
%TD*%
D14*
%TO.C,J1*%
X95545000Y-84652500D03*
D15*
X95545000Y-82112500D03*
X98085000Y-84652500D03*
X98085000Y-82112500D03*
X100625000Y-84652500D03*
X100625000Y-82112500D03*
X103165000Y-84652500D03*
X103165000Y-82112500D03*
X105705000Y-84652500D03*
X105705000Y-82112500D03*
X108245000Y-84652500D03*
X108245000Y-82112500D03*
X110785000Y-84652500D03*
X110785000Y-82112500D03*
X113325000Y-84652500D03*
X113325000Y-82112500D03*
X115865000Y-84652500D03*
X115865000Y-82112500D03*
X118405000Y-84652500D03*
X118405000Y-82112500D03*
X120945000Y-84652500D03*
X120945000Y-82112500D03*
X123485000Y-84652500D03*
X123485000Y-82112500D03*
X126025000Y-84652500D03*
X126025000Y-82112500D03*
X128565000Y-84652500D03*
X128565000Y-82112500D03*
X131105000Y-84652500D03*
X131105000Y-82112500D03*
X133645000Y-84652500D03*
X133645000Y-82112500D03*
X136185000Y-84652500D03*
X136185000Y-82112500D03*
X138725000Y-84652500D03*
X138725000Y-82112500D03*
X141265000Y-84652500D03*
X141265000Y-82112500D03*
X143805000Y-84652500D03*
X143805000Y-82112500D03*
%TD*%
D14*
%TO.C,J2*%
X155800000Y-84600000D03*
D15*
X155800000Y-82060000D03*
X158340000Y-84600000D03*
X158340000Y-82060000D03*
X160880000Y-84600000D03*
X160880000Y-82060000D03*
X163420000Y-84600000D03*
X163420000Y-82060000D03*
X165960000Y-84600000D03*
X165960000Y-82060000D03*
X168500000Y-84600000D03*
X168500000Y-82060000D03*
X171040000Y-84600000D03*
X171040000Y-82060000D03*
X173580000Y-84600000D03*
X173580000Y-82060000D03*
X176120000Y-84600000D03*
X176120000Y-82060000D03*
X178660000Y-84600000D03*
X178660000Y-82060000D03*
X181200000Y-84600000D03*
X181200000Y-82060000D03*
X183740000Y-84600000D03*
X183740000Y-82060000D03*
X186280000Y-84600000D03*
X186280000Y-82060000D03*
X188820000Y-84600000D03*
X188820000Y-82060000D03*
X191360000Y-84600000D03*
X191360000Y-82060000D03*
X193900000Y-84600000D03*
X193900000Y-82060000D03*
X196440000Y-84600000D03*
X196440000Y-82060000D03*
X198980000Y-84600000D03*
X198980000Y-82060000D03*
X201520000Y-84600000D03*
X201520000Y-82060000D03*
X204060000Y-84600000D03*
X204060000Y-82060000D03*
%TD*%
M02*
